<svg width="2758" height="1615" viewBox="0 0 2758 1615" fill="none" xmlns="http://www.w3.org/2000/svg">
<path d="M155.428 1513.09C152.095 1513.16 148.871 1514.29 146.23 1516.33C138.39 1495.6 126.254 1482.28 112.62 1482.28C98.9856 1482.28 86.8496 1495.6 79.0101 1516.33C76.3686 1514.29 73.1451 1513.16 69.812 1513.09C54.3223 1513.09 41.7654 1539.3 41.7654 1571.63H183.474C183.474 1539.3 170.917 1513.09 155.428 1513.09Z" fill="#FF8AE2"/>
<path d="M718.484 1568.36H0V1574.9H718.484V1568.36Z" fill="#2C5271"/>
<path d="M2709.31 1375.77C2705.98 1375.83 2702.76 1376.97 2700.12 1379C2692.28 1358.28 2680.14 1344.95 2666.51 1344.95C2652.87 1344.95 2640.74 1358.28 2632.9 1379C2630.25 1376.97 2627.03 1375.83 2623.7 1375.77C2608.21 1375.77 2595.65 1401.98 2595.65 1434.31H2737.36C2737.36 1401.98 2724.8 1375.77 2709.31 1375.77Z" fill="#FF8AE2"/>
<path d="M2404.4 300.14H1720.24V286.032H1410.02V300.14H723.04C716.963 300.14 710.945 301.338 705.33 303.665C699.716 305.992 694.614 309.403 690.317 313.702C686.019 318.002 682.61 323.106 680.285 328.724C677.959 334.342 676.762 340.363 676.762 346.444V1283.77C676.762 1296.06 681.638 1307.83 690.317 1316.52C698.995 1325.2 710.766 1330.08 723.04 1330.08H2404.4C2416.68 1330.08 2428.45 1325.2 2437.13 1316.52C2445.81 1307.83 2450.68 1296.06 2450.68 1283.77V346.444C2450.68 340.363 2449.49 334.342 2447.16 328.724C2444.83 323.106 2441.43 318.002 2437.13 313.702C2432.83 309.403 2427.73 305.992 2422.11 303.665C2416.5 301.338 2410.48 300.14 2404.4 300.14V300.14Z" fill="#2C5271"/>
<path opacity="0.2" d="M2388.62 381.958H738.821V1313.16H2388.62V381.958Z" fill="black"/>
<path d="M1562.31 356.575C1571.66 356.575 1579.23 348.995 1579.23 339.645C1579.23 330.294 1571.66 322.714 1562.31 322.714C1552.97 322.714 1545.39 330.294 1545.39 339.645C1545.39 348.995 1552.97 356.575 1562.31 356.575Z" fill="#FF8AE2"/>
<path d="M2758 1427.77H364.142V1434.31H2758V1427.77Z" fill="#2C5271"/>
<path d="M1789.13 729.87V660.977C1789.13 649.876 1786.95 638.884 1782.7 628.629C1778.46 618.373 1772.23 609.055 1764.39 601.205C1756.54 593.356 1747.23 587.129 1736.98 582.881C1726.73 578.633 1715.74 576.447 1704.65 576.447H1635.79C1635.79 567.147 1605.92 559.528 1567.97 558.806V475.724C1579.88 474.223 1590.76 468.238 1598.42 458.988C1606.07 449.737 1609.91 437.916 1609.16 425.931C1608.41 413.946 1603.12 402.699 1594.37 394.478C1585.62 386.257 1574.07 381.68 1562.07 381.68C1550.07 381.68 1538.52 386.257 1529.77 394.478C1521.02 402.699 1515.73 413.946 1514.98 425.931C1514.23 437.916 1518.07 449.737 1525.72 458.988C1533.38 468.238 1544.27 474.223 1556.17 475.724V558.806C1518.22 559.528 1488.35 567.147 1488.35 576.447H1407.7C1396.6 576.447 1385.62 578.633 1375.37 582.881C1365.12 587.129 1355.8 593.356 1347.96 601.205C1340.11 609.055 1333.89 618.373 1329.64 628.629C1325.4 638.884 1323.21 649.876 1323.21 660.977V729.87C1313.44 729.87 1305.52 762.894 1305.52 803.631C1305.52 844.369 1313.44 877.392 1323.21 877.392V958.088C1323.21 969.189 1325.4 980.18 1329.64 990.436C1333.89 1000.69 1340.11 1010.01 1347.96 1017.86C1355.8 1025.71 1365.12 1031.94 1375.37 1036.18C1385.62 1040.43 1396.6 1042.62 1407.7 1042.62H1704.65C1715.74 1042.62 1726.73 1040.43 1736.98 1036.18C1747.23 1031.94 1756.54 1025.71 1764.39 1017.86C1772.23 1010.01 1778.46 1000.69 1782.7 990.436C1786.95 980.18 1789.13 969.189 1789.13 958.088V877.392C1798.9 877.392 1806.83 844.368 1806.83 803.631C1806.83 762.894 1798.9 729.87 1789.13 729.87Z" fill="#FF8AE2"/>
<path d="M1424.61 603.001H1687.73C1707.59 603.001 1726.63 610.892 1740.67 624.939C1754.71 638.985 1762.59 658.036 1762.59 677.901V941.164C1762.59 961.029 1754.71 980.08 1740.67 994.126C1726.63 1008.17 1707.59 1016.06 1687.73 1016.06H1424.61C1404.76 1016.06 1385.72 1008.17 1371.68 994.126C1357.64 980.08 1349.75 961.029 1349.75 941.164V677.901C1349.75 658.036 1357.64 638.985 1371.68 624.939C1385.72 610.892 1404.76 603.001 1424.61 603.001Z" fill="#2C5271"/>
<path d="M1461.81 799.206C1447.74 799.19 1434.25 793.59 1424.29 783.634C1414.34 773.677 1408.75 760.178 1408.73 746.098C1408.73 745.315 1409.04 744.565 1409.59 744.012C1410.15 743.458 1410.9 743.148 1411.68 743.148C1412.46 743.148 1413.21 743.458 1413.76 744.012C1414.32 744.565 1414.63 745.315 1414.63 746.098C1414.63 758.618 1419.6 770.625 1428.45 779.478C1437.3 788.332 1449.3 793.305 1461.81 793.305C1474.32 793.305 1486.32 788.332 1495.17 779.478C1504.02 770.625 1508.99 758.618 1508.99 746.098C1508.99 745.315 1509.3 744.565 1509.85 744.012C1510.41 743.458 1511.16 743.148 1511.94 743.148C1512.72 743.148 1513.47 743.458 1514.03 744.012C1514.58 744.565 1514.89 745.315 1514.89 746.098C1514.87 760.178 1509.28 773.677 1499.32 783.634C1489.37 793.59 1475.88 799.19 1461.81 799.206V799.206Z" fill="#FF8AE2"/>
<path d="M1556.17 899.521C1545.23 899.509 1534.73 895.153 1526.99 887.409C1519.25 879.665 1514.9 869.166 1514.89 858.215C1514.89 857.432 1515.2 856.682 1515.75 856.128C1516.31 855.575 1517.06 855.264 1517.84 855.264C1518.62 855.264 1519.37 855.575 1519.92 856.128C1520.48 856.682 1520.79 857.432 1520.79 858.215C1520.79 867.605 1524.52 876.61 1531.15 883.25C1537.79 889.89 1546.79 893.62 1556.17 893.62C1565.56 893.62 1574.56 889.89 1581.19 883.25C1587.83 876.61 1591.56 867.605 1591.56 858.215C1591.56 857.432 1591.87 856.682 1592.42 856.128C1592.98 855.575 1593.73 855.264 1594.51 855.264C1595.29 855.264 1596.04 855.575 1596.59 856.128C1597.15 856.682 1597.46 857.432 1597.46 858.215C1597.44 869.166 1593.09 879.665 1585.35 887.409C1577.61 895.153 1567.12 899.509 1556.17 899.521Z" fill="#FF8AE2"/>
<path d="M1650.54 799.206C1636.46 799.19 1622.97 793.59 1613.02 783.634C1603.07 773.677 1597.47 760.178 1597.46 746.098C1597.46 745.315 1597.77 744.565 1598.32 744.012C1598.87 743.458 1599.62 743.148 1600.41 743.148C1601.19 743.148 1601.94 743.458 1602.49 744.012C1603.04 744.565 1603.35 745.315 1603.35 746.098C1603.35 758.618 1608.33 770.625 1617.17 779.478C1626.02 788.332 1638.02 793.305 1650.54 793.305C1663.05 793.305 1675.05 788.332 1683.9 779.478C1692.75 770.625 1697.72 758.618 1697.72 746.098C1697.72 745.315 1698.03 744.565 1698.58 744.012C1699.13 743.458 1699.88 743.148 1700.67 743.148C1701.45 743.148 1702.2 743.458 1702.75 744.012C1703.31 744.565 1703.62 745.315 1703.62 746.098C1703.6 760.178 1698 773.677 1688.05 783.633C1678.1 793.59 1664.61 799.19 1650.54 799.206V799.206Z" fill="#FF8AE2"/>
<path d="M1461.81 775.602C1476.47 775.602 1488.35 763.714 1488.35 749.048C1488.35 734.383 1476.47 722.495 1461.81 722.495C1447.15 722.495 1435.27 734.383 1435.27 749.048C1435.27 763.714 1447.15 775.602 1461.81 775.602Z" fill="#FF8AE2"/>
<path d="M1650.54 775.602C1665.19 775.602 1677.08 763.714 1677.08 749.048C1677.08 734.383 1665.19 722.495 1650.54 722.495C1635.88 722.495 1624 734.383 1624 749.048C1624 763.714 1635.88 775.602 1650.54 775.602Z" fill="#FF8AE2"/>
<path d="M1556.17 884.769C1569.2 884.769 1579.76 879.485 1579.76 872.967C1579.76 866.449 1569.2 861.165 1556.17 861.165C1543.14 861.165 1532.58 866.449 1532.58 872.967C1532.58 879.485 1543.14 884.769 1556.17 884.769Z" fill="#FF8AE2"/>
<path d="M2497.01 1296.22H2335.99V1284.61C2335.99 1284.31 2335.93 1284.01 2335.82 1283.73C2335.7 1283.45 2335.53 1283.2 2335.32 1282.98C2335.11 1282.77 2334.85 1282.6 2334.57 1282.48C2334.29 1282.37 2334 1282.31 2333.69 1282.31H2278.49C2278.19 1282.31 2277.89 1282.37 2277.61 1282.48C2277.33 1282.6 2277.08 1282.77 2276.86 1282.98C2276.65 1283.2 2276.48 1283.45 2276.36 1283.73C2276.25 1284.01 2276.19 1284.31 2276.19 1284.61V1296.22H2241.69V1284.61C2241.69 1284.31 2241.63 1284.01 2241.51 1283.73C2241.4 1283.45 2241.23 1283.2 2241.01 1282.98C2240.8 1282.77 2240.54 1282.6 2240.27 1282.48C2239.99 1282.37 2239.69 1282.31 2239.39 1282.31H2184.18C2183.88 1282.31 2183.58 1282.37 2183.3 1282.48C2183.02 1282.6 2182.77 1282.77 2182.55 1282.98C2182.34 1283.2 2182.17 1283.45 2182.06 1283.73C2181.94 1284.01 2181.88 1284.31 2181.88 1284.61V1296.22H2147.38V1284.61C2147.38 1284.31 2147.32 1284.01 2147.2 1283.73C2147.09 1283.45 2146.92 1283.2 2146.7 1282.98C2146.49 1282.77 2146.24 1282.6 2145.96 1282.48C2145.68 1282.37 2145.38 1282.31 2145.08 1282.31H2089.87C2089.57 1282.31 2089.27 1282.37 2088.99 1282.48C2088.71 1282.6 2088.46 1282.77 2088.25 1282.98C2088.03 1283.2 2087.86 1283.45 2087.75 1283.73C2087.63 1284.01 2087.57 1284.31 2087.57 1284.61V1296.22H2053.07V1284.61C2053.07 1284.31 2053.01 1284.01 2052.9 1283.73C2052.78 1283.45 2052.61 1283.2 2052.4 1282.98C2052.18 1282.77 2051.93 1282.6 2051.65 1282.48C2051.37 1282.37 2051.07 1282.31 2050.77 1282.31H1995.57C1995.26 1282.31 1994.97 1282.37 1994.69 1282.48C1994.41 1282.6 1994.15 1282.77 1993.94 1282.98C1993.73 1283.2 1993.56 1283.45 1993.44 1283.73C1993.33 1284.01 1993.27 1284.31 1993.27 1284.61V1296.22H1958.76V1284.61C1958.76 1284.31 1958.7 1284.01 1958.59 1283.73C1958.47 1283.45 1958.3 1283.2 1958.09 1282.98C1957.88 1282.77 1957.62 1282.6 1957.34 1282.48C1957.06 1282.37 1956.77 1282.31 1956.46 1282.31H1901.26C1900.96 1282.31 1900.66 1282.37 1900.38 1282.48C1900.1 1282.6 1899.85 1282.77 1899.63 1282.98C1899.42 1283.2 1899.25 1283.45 1899.13 1283.73C1899.02 1284.01 1898.96 1284.31 1898.96 1284.61V1296.22H1864.46V1284.61C1864.46 1284.31 1864.4 1284.01 1864.28 1283.73C1864.17 1283.45 1864 1283.2 1863.78 1282.98C1863.57 1282.77 1863.32 1282.6 1863.04 1282.48C1862.76 1282.37 1862.46 1282.31 1862.16 1282.31H1806.95C1806.65 1282.31 1806.35 1282.37 1806.07 1282.48C1805.79 1282.6 1805.54 1282.77 1805.32 1282.98C1805.11 1283.2 1804.94 1283.45 1804.83 1283.73C1804.71 1284.01 1804.65 1284.31 1804.65 1284.61V1296.22H1770.15V1284.61C1770.15 1284.31 1770.09 1284.01 1769.97 1283.73C1769.86 1283.45 1769.69 1283.2 1769.47 1282.98C1769.26 1282.77 1769.01 1282.6 1768.73 1282.48C1768.45 1282.37 1768.15 1282.31 1767.85 1282.31H1335.41C1335.11 1282.31 1334.81 1282.37 1334.53 1282.48C1334.25 1282.6 1334 1282.77 1333.79 1282.98C1333.57 1283.2 1333.4 1283.45 1333.29 1283.73C1333.17 1284.01 1333.11 1284.31 1333.11 1284.61V1296.22H1298.61V1284.61C1298.61 1284.31 1298.55 1284.01 1298.44 1283.73C1298.32 1283.45 1298.15 1283.2 1297.94 1282.98C1297.72 1282.77 1297.47 1282.6 1297.19 1282.48C1296.91 1282.37 1296.61 1282.31 1296.31 1282.31H1241.11C1240.8 1282.31 1240.51 1282.37 1240.23 1282.48C1239.95 1282.6 1239.69 1282.77 1239.48 1282.98C1239.27 1283.2 1239.1 1283.45 1238.98 1283.73C1238.87 1284.01 1238.81 1284.31 1238.81 1284.61V1296.22H1204.3V1284.61C1204.3 1284.31 1204.24 1284.01 1204.13 1283.73C1204.01 1283.45 1203.84 1283.2 1203.63 1282.98C1203.42 1282.77 1203.16 1282.6 1202.88 1282.48C1202.6 1282.37 1202.31 1282.31 1202 1282.31H1146.8C1146.5 1282.31 1146.2 1282.37 1145.92 1282.48C1145.64 1282.6 1145.39 1282.77 1145.17 1282.98C1144.96 1283.2 1144.79 1283.45 1144.67 1283.73C1144.56 1284.01 1144.5 1284.31 1144.5 1284.61V1296.22H1110V1284.61C1110 1284.31 1109.94 1284.01 1109.82 1283.73C1109.71 1283.45 1109.54 1283.2 1109.32 1282.98C1109.11 1282.77 1108.86 1282.6 1108.58 1282.48C1108.3 1282.37 1108 1282.31 1107.7 1282.31H1052.49C1052.19 1282.31 1051.89 1282.37 1051.61 1282.48C1051.33 1282.6 1051.08 1282.77 1050.87 1282.98C1050.65 1283.2 1050.48 1283.45 1050.37 1283.73C1050.25 1284.01 1050.19 1284.31 1050.19 1284.61V1296.22H1015.69V1284.61C1015.69 1284.31 1015.63 1284.01 1015.51 1283.73C1015.4 1283.45 1015.23 1283.2 1015.02 1282.98C1014.8 1282.77 1014.55 1282.6 1014.27 1282.48C1013.99 1282.37 1013.69 1282.31 1013.39 1282.31H958.184C957.882 1282.31 957.583 1282.37 957.304 1282.48C957.025 1282.6 956.771 1282.77 956.558 1282.98C956.344 1283.2 956.175 1283.45 956.059 1283.73C955.944 1284.01 955.884 1284.31 955.884 1284.61V1296.22H921.381V1284.61C921.381 1284.31 921.322 1284.01 921.206 1283.73C921.091 1283.45 920.921 1283.2 920.708 1282.98C920.494 1282.77 920.24 1282.6 919.961 1282.48C919.682 1282.37 919.383 1282.31 919.081 1282.31H863.877C863.575 1282.31 863.276 1282.37 862.997 1282.48C862.717 1282.6 862.464 1282.77 862.25 1282.98C862.037 1283.2 861.867 1283.45 861.752 1283.73C861.636 1284.01 861.577 1284.31 861.577 1284.61V1296.22H827.074V1284.61C827.074 1284.31 827.014 1284.01 826.899 1283.73C826.783 1283.45 826.614 1283.2 826.4 1282.98C826.187 1282.77 825.933 1282.6 825.654 1282.48C825.375 1282.37 825.076 1282.31 824.774 1282.31H769.569C769.267 1282.31 768.968 1282.37 768.689 1282.48C768.41 1282.6 768.156 1282.77 767.943 1282.98C767.729 1283.2 767.56 1283.45 767.444 1283.73C767.329 1284.01 767.269 1284.31 767.269 1284.61V1296.22H661.461C654.211 1296.22 647.033 1297.65 640.335 1300.42C633.637 1303.2 627.551 1307.27 622.425 1312.39C617.299 1317.52 613.233 1323.61 610.459 1330.31C607.684 1337.02 606.256 1344.2 606.256 1351.45V1376.43C606.256 1391.08 612.073 1405.13 622.425 1415.48C632.778 1425.84 646.82 1431.66 661.461 1431.66H2497.01C2511.65 1431.66 2525.69 1425.84 2536.04 1415.48C2546.39 1405.13 2552.21 1391.08 2552.21 1376.43V1351.45C2552.21 1344.2 2550.78 1337.02 2548.01 1330.31C2545.23 1323.61 2541.17 1317.52 2536.04 1312.39C2530.92 1307.27 2524.83 1303.2 2518.13 1300.42C2511.43 1297.65 2504.26 1296.22 2497.01 1296.22V1296.22Z" fill="#2C5271"/>
<path d="M2091.77 1038.93H991.183V1045.46H2091.77V1038.93Z" fill="#FF8AE2"/>
<path d="M1069.56 1035.66H798.498C807.173 933.459 807.173 830.707 798.498 728.506H1069.56C1054.64 833.704 1053.77 936.254 1069.56 1035.66Z" fill="#93C2DB"/>
<path d="M1033.64 790.59H837.688V803.661H1033.64V790.59Z" fill="#2C5271"/>
<path d="M1033.64 833.069H837.688V846.139H1033.64V833.069Z" fill="#2C5271"/>
<path d="M1033.64 875.548H837.688V888.618H1033.64V875.548Z" fill="#2C5271"/>
<path d="M1033.64 918.027H837.688V931.097H1033.64V918.027Z" fill="#2C5271"/>
<path d="M1033.64 960.505H837.688V973.576H1033.64V960.505Z" fill="#2C5271"/>
<path d="M349.263 10.4804C349.263 10.4804 306.672 -4.73866 279.293 56.1375C251.913 117.014 209.323 183.977 209.323 183.977L233.66 190.065C233.66 190.065 239.745 147.452 254.956 141.364L248.871 196.153C248.871 196.153 431.401 260.073 513.54 190.065L510.497 168.758C510.497 168.758 522.666 171.802 522.666 190.065L531.792 180.934C531.792 180.934 522.666 162.671 495.286 138.32C477.316 122.338 471.14 91.9311 469.018 72.9203C467.428 57.0461 461.08 42.0233 450.807 29.822C432.612 8.7236 399.458 -13.701 349.263 10.4804Z" fill="#183D5D"/>
<path d="M226.437 1353.23L239.5 1428.39L291.754 1418.58L301.551 1353.23H226.437Z" fill="#FFB9B9"/>
<path d="M301.551 1395.71L229.702 1402.25L232.968 1461.06L229.702 1536.22C229.702 1536.22 187.246 1621.18 249.297 1614.64C311.348 1608.11 304.817 1575.43 304.817 1575.43L321.146 1555.82L311.348 1506.81L301.551 1395.71Z" fill="#183D5D"/>
<path d="M520.362 1353.23L507.299 1428.39L455.046 1418.58L445.248 1353.23H520.362Z" fill="#FFB9B9"/>
<path d="M445.248 1395.71L517.096 1402.25L513.83 1461.06L517.096 1536.22C517.096 1536.22 559.552 1621.18 497.501 1614.64C435.45 1608.11 441.982 1575.43 441.982 1575.43L425.653 1555.82L435.45 1506.81L445.248 1395.71Z" fill="#183D5D"/>
<path d="M370.133 212.839C411.618 212.839 445.248 179.191 445.248 137.684C445.248 96.1775 411.618 62.5295 370.133 62.5295C328.649 62.5295 295.019 96.1775 295.019 137.684C295.019 179.191 328.649 212.839 370.133 212.839Z" fill="#FFB9B9"/>
<path d="M321.146 176.896L330.943 294.529L422.387 291.262C422.387 291.262 396.26 216.107 412.589 186.699L321.146 176.896Z" fill="#FFB9B9"/>
<path d="M373.399 271.656L411.014 248.182L451.779 268.388L517.096 297.797L494.235 575.543C494.235 575.543 546.489 748.726 536.691 833.684C526.894 918.641 644.464 1343.43 549.754 1363.04C455.045 1382.64 386.463 1402.25 383.197 1369.57C379.931 1336.89 373.399 836.951 373.399 836.951C373.399 836.951 363.602 1366.3 324.412 1372.84C285.222 1379.37 115.398 1405.51 128.461 1366.3C141.525 1327.09 229.702 640.895 272.158 601.684L278.69 569.008L223.171 304.332L327.43 252.342L373.399 271.656Z" fill="#183D5D"/>
<path d="M177.449 676.839L174.183 810.811C174.183 810.811 142.746 943.079 196.022 942.297C249.298 941.515 210.108 810.811 210.108 810.811L232.968 680.107L177.449 676.839Z" fill="#FFB9B9"/>
<path d="M671.287 536.231L763.068 633.833C763.068 633.833 874.695 711.358 834.494 746.345C794.292 781.332 736.312 657.818 736.312 657.818L632.115 575.732L671.287 536.231Z" fill="#FFB9B9"/>
<path d="M273.792 593.514L497.469 586.652L494.562 571.458V571.393L278.364 567.472L273.792 593.514Z" fill="#93C2DB"/>
<path d="M319.513 600.05C330.335 600.05 339.108 591.273 339.108 580.445C339.108 569.617 330.335 560.839 319.513 560.839C308.691 560.839 299.918 569.617 299.918 580.445C299.918 591.273 308.691 600.05 319.513 600.05Z" fill="#183D5D"/>
<path d="M249.297 307.6L228.069 302.698C228.069 302.698 200.31 314.135 193.778 350.079C187.246 386.022 102.335 667.036 144.791 683.374C187.246 699.712 249.297 706.247 249.297 699.712C249.297 693.177 275.424 448.107 275.424 448.107L249.297 307.6Z" fill="#183D5D"/>
<path d="M449.054 320.055L517.096 297.797C517.096 297.797 549.755 297.797 549.755 333.741C549.755 348.569 612.346 470.365 612.346 470.365C612.346 470.365 762.736 577.624 739.713 581.464C700.523 587.999 677.662 656.618 677.662 656.618L530.7 525.914L449.054 320.055Z" fill="#183D5D"/>
<path d="M278.522 143.281C278.522 143.281 302.86 109.799 324.155 103.712C345.45 97.6241 348.492 67.186 348.492 67.186C348.492 67.186 403.251 128.062 436.715 131.106C470.179 134.15 439.757 58.0545 439.757 58.0545L378.914 42.8354L321.113 48.923L275.48 79.3611L278.522 143.281Z" fill="#183D5D"/>
<path d="M296.652 140.952C302.063 140.952 306.45 134.369 306.45 126.248C306.45 118.127 302.063 111.544 296.652 111.544C291.241 111.544 286.854 118.127 286.854 126.248C286.854 134.369 291.241 140.952 296.652 140.952Z" fill="#FFB9B9"/>
</svg>
