<svg width="2881" height="1644" viewBox="0 0 2881 1644" fill="none" xmlns="http://www.w3.org/2000/svg">
<g clip-path="url(#clip0)">
<path opacity="0.1" d="M1731.92 1184.93C1787.58 1181.75 1856.63 1143.99 1910.32 1127.28C1973.87 1107.56 2037.67 1088.59 2101.72 1070.37C2324.7 1006.9 2550.06 952.811 2777.82 908.115C2799.08 903.933 2820.37 899.852 2841.69 895.871C2808.48 824.071 2757.02 762.243 2692.45 716.561C2694.1 700.843 2694.94 685.05 2694.97 669.245C2694.97 419.466 2495.44 216.976 2249.22 216.976C2173.42 216.896 2098.88 236.47 2032.89 273.79C1858.62 159.104 1631.16 89.6931 1382.3 89.6931C1028.67 89.6931 718.235 229.851 542.328 440.906L1369.05 580.636L1876.1 666.297C1298.06 683.556 718.235 700.713 141.859 660.2C65.7745 733.851 17.6183 831.651 5.62038 936.886C-6.37753 1042.12 18.5276 1148.26 76.0796 1237.16V1237.16C76.0796 1246.2 76.4573 1255.17 77.1373 1264.07C91.8193 1268.27 105.998 1272.35 118.715 1275.02C322.887 1318.17 528.368 1354.29 735.159 1383.36C582.773 1477.36 397.195 1490.67 221.414 1530.47C306.534 1600.77 422.127 1643.85 549.505 1643.85H2446.13C2651.5 1643.85 2817.97 1500.82 2817.97 1324.36C2848.78 1273.51 2869.32 1217.11 2878.41 1158.35C2498.39 1195.06 2113.63 1163.19 1731.92 1184.93Z" fill="#23425A"/>
<path opacity="0.1" d="M2881 1083.19C2881.2 1010.47 2863.92 938.757 2830.61 874.115C2797.3 809.472 2748.94 753.793 2689.61 711.773C2691.25 696.063 2692.09 680.279 2692.12 664.483C2692.12 414.703 2492.49 212.29 2246.37 212.29C2170.56 212.209 2096.03 231.774 2030.02 269.078C1855.75 154.342 1628.27 84.9058 1379.4 84.9058C974.604 84.9058 626.164 268.701 471.638 532.262C463.05 531.758 454.412 531.481 445.699 531.481C199.555 531.481 -0.050155 733.97 -0.050155 983.749C-0.222682 1071.98 25.2569 1158.35 73.2844 1232.34C73.2844 1457.08 285.305 1639.26 546.735 1639.26H2443.41C2648.76 1639.26 2815.22 1496.21 2815.22 1319.74C2858.41 1248.42 2881.17 1166.59 2881 1083.19Z" fill="#23425A"/>
<path d="M2352.85 806.102C2349.25 803.337 2345.03 801.487 2340.56 800.711C2335.85 799.627 2331.04 798.947 2326.26 798.191L2264.25 789.247C2258 788.085 2251.61 787.746 2245.27 788.239C2242.08 788.501 2238.98 789.392 2236.15 790.863C2233.31 792.334 2230.79 794.354 2228.75 796.806C2226.9 799.087 2225.88 801.932 2225.87 804.868C2226.22 807.823 2227.18 810.672 2228.7 813.232C2229.3 814.429 2229.81 815.666 2230.23 816.936C2230.82 819.786 2231.56 822.603 2232.45 825.376C2232.72 825.977 2233.08 826.536 2233.51 827.039C2233.52 827.182 2233.52 827.325 2233.51 827.467C2232.83 830.944 2235.02 834.572 2234.03 837.923C2233.18 840.795 2230.38 842.534 2228.62 844.927C2227.44 846.625 2226.79 848.632 2226.75 850.697C2226.7 852.762 2227.27 854.795 2228.37 856.542C2230.26 859.465 2233.68 861.455 2234.66 864.806C2235.95 869.215 2232.47 873.473 2229.38 876.874C2223.68 883.136 2218.41 889.777 2213.61 896.753C2212.26 898.468 2211.39 900.511 2211.09 902.673C2210.82 907.057 2215.02 910.912 2214.29 915.271C2213.71 918.697 2210.36 920.788 2207.47 922.829C2196.76 929.884 2188.17 941.221 2187.32 954.045C2184.57 933.642 2176.12 914.429 2162.94 898.617C2159.34 894.284 2155.39 889.925 2153.9 884.432C2153.35 882.241 2153.25 879.897 2152.49 877.781C2149.97 871.105 2141.96 868.232 2138.46 862.085C2135.94 857.751 2135.94 852.183 2132.82 848.379C2129.7 844.575 2124.79 843.718 2122.09 840.04C2120.75 837.548 2119.6 834.953 2118.67 832.28C2117.54 830.1 2115.95 828.191 2114.01 826.686C2113.64 826.389 2113.25 826.112 2112.85 825.855C2113.27 825.481 2113.6 825.023 2113.83 824.51C2114.06 823.998 2114.18 823.443 2114.19 822.882C2114.19 819.934 2111.26 817.994 2108.72 816.533C2105.45 814.668 2102.25 812.653 2099.13 810.562C2102.53 808.975 2105.48 806.558 2107.71 803.533C2110.51 799.02 2111.66 793.681 2110.99 788.416C2110.82 784.166 2109.23 780.095 2106.48 776.851C2104.89 775.163 2102.9 773.954 2101.24 772.367C2096.93 768.159 2095.47 761.936 2093.69 756.192C2091.32 748.633 2087.62 740.697 2080.72 736.691C2077.39 734.751 2073.51 733.844 2070.27 731.803C2067.02 729.763 2064.3 725.908 2065.43 722.204C2066.19 719.685 2068.53 717.946 2070.11 715.805C2072.01 713.036 2072.74 709.631 2072.14 706.329C2071.54 703.028 2069.66 700.096 2066.92 698.169C2065.05 696.984 2062.76 695.951 2062.38 693.785C2060.93 693.406 2059.6 692.623 2058.57 691.527C2057.54 690.431 2056.83 689.065 2056.54 687.587C2055.97 684.624 2055.97 681.58 2056.54 678.618C2057.2 673.931 2057.84 669.262 2058.48 664.609C2059.59 665.071 2060.78 665.308 2061.98 665.308C2063.18 665.308 2064.37 665.071 2065.48 664.609C2067.66 668.148 2070.19 671.457 2073.04 674.486C2080.7 683.546 2086.68 693.916 2090.66 705.097C2092.1 709.128 2093.56 713.638 2097.29 715.78C2098.57 716.51 2100.03 716.888 2101.29 717.669C2102.84 718.752 2104.18 720.12 2105.22 721.7C2108.24 725.706 2111.26 729.687 2114.26 733.693L2114.41 734.298C2114.49 734.652 2114.63 734.992 2114.82 735.305C2115.37 735.933 2116.15 736.329 2116.98 736.414C2126.25 738.556 2136.65 740.521 2144.68 735.457C2151.94 730.922 2155.11 721.952 2161.25 715.956C2165.61 711.698 2171.78 708.398 2173.01 702.401C2171.54 701.947 2170.1 701.418 2168.68 700.814C2169.94 699.554 2171.2 698.093 2172.91 696.43C2175.4 693.993 2177.65 691.318 2179.61 688.443C2181.74 684.897 2183.43 681.107 2184.65 677.156C2189.5 663.316 2194.37 649.467 2199.26 635.61C2201.57 629.06 2203.89 622.459 2206.81 616.084C2209.83 609.181 2213.41 602.555 2216.71 595.778C2225.22 578.152 2231.79 559.651 2236.3 540.601C2237.1 538.002 2237.37 535.269 2237.08 532.564C2236.38 528.206 2233.08 524.779 2229.93 521.68C2226.76 518.252 2223.16 515.261 2219.2 512.787C2217.22 511.551 2215 510.723 2212.69 510.351C2210.39 509.979 2208.03 510.071 2205.75 510.62C2199.31 512.509 2195.25 519.11 2193.77 525.737C2192.28 532.363 2192.83 539.191 2192.2 545.892C2191.3 555.592 2187.97 564.965 2187.17 574.69C2186.74 580.308 2187.17 586.002 2186.49 591.62C2185.25 598.973 2182.69 606.041 2178.93 612.482C2170.77 627.842 2159.71 641.479 2146.37 652.642C2144.83 653.927 2143.25 655.161 2141.74 656.547C2141.74 655.464 2141.91 654.355 2142.06 653.272C2140.97 653.557 2139.9 653.936 2138.87 654.406C2138.99 653.133 2138.86 651.848 2138.49 650.626C2136.47 644.605 2127.51 643.068 2125.9 636.946C2125.63 635.431 2125.48 633.898 2125.47 632.36C2124.94 626.994 2121.29 622.459 2120.03 617.243C2118.87 612.431 2119.75 607.166 2117.51 602.706C2115.6 599.918 2113.35 597.379 2110.81 595.148C2107.79 591.69 2105.6 587.576 2104.44 583.13C2104.11 581.895 2103.81 580.61 2103.46 579.376C2103.84 576.58 2103.53 573.734 2102.55 571.087C2100.26 565.393 2094.34 561.74 2092.2 555.97C2090.54 551.485 2091.27 545.892 2088.12 542.415C2086.45 540.754 2084.4 539.519 2082.15 538.813C2070.63 534.322 2058.53 531.464 2046.22 530.322C2039.31 529.692 2031.71 529.339 2026.77 524.477C2021.01 518.833 2020.73 508.68 2013.98 504.321C2008.04 500.466 1999.63 503.313 1995.02 508.73C1994.32 509.527 1993.68 510.369 1993.1 511.25C1992.26 507.873 1992.08 504.365 1992.57 500.92C1992.57 500.063 1992.75 499.181 1992.83 498.4C2004.2 494.683 2013.87 487.038 2020.12 476.834C2020.12 476.834 2020.12 476.834 2020.12 476.985L2020.43 477.766C2021.16 479.605 2022.32 481.369 2024.03 481.57C2025.17 481.557 2026.27 481.157 2027.15 480.437C2028.67 479.38 2030.07 478.164 2031.33 476.809C2031.97 476.103 2032.57 475.372 2033.15 474.617C2034.31 473.043 2035.3 471.355 2036.12 469.578C2037.37 466.904 2038.22 464.06 2038.64 461.138C2039.09 458.215 2039.14 455.217 2039.64 452.294C2040.11 450.032 2040.73 447.802 2041.48 445.618C2041.73 444.887 2041.98 444.156 2042.21 443.426C2042.44 442.695 2042.77 441.712 2043.02 440.906C2044.59 435.724 2045.44 430.348 2045.54 424.933C2045.54 424.026 2045.54 423.119 2045.54 422.212C2045.44 418.677 2044.65 415.197 2043.19 411.974C2041.74 408.751 2039.66 405.85 2037.07 403.442C2032.74 399.889 2027 398.403 2023.83 393.591C2021.76 390.366 2021.31 386.209 2020.1 382.43C2018.79 377.907 2016.25 373.841 2012.75 370.692C2009.25 367.544 2004.94 365.439 2000.31 364.617C1994.73 364.005 1989.12 365.546 1984.64 368.925V368.925L1984.29 369.202C1981.79 371.11 1979.67 373.469 1978.04 376.156C1974.72 375.239 1971.67 373.507 1969.18 371.117C1966.66 368.774 1964.72 365.826 1962.18 363.559C1959.8 361.381 1956.88 359.881 1953.73 359.217C1950.57 358.552 1947.3 358.746 1944.25 359.78C1941.1 361.04 1938.3 363.028 1936.07 365.582C1933.84 368.135 1932.25 371.18 1931.43 374.468C1930.04 379.658 1930.3 385.629 1927.4 389.963C1925.16 393.339 1921.48 395.002 1918.91 398.075C1917.32 400.022 1916.23 402.333 1915.74 404.802V404.802C1915.43 406.183 1915.29 407.595 1915.31 409.01V409.01C1915.31 409.64 1915.31 410.27 1915.46 410.874C1915.46 410.874 1915.46 411.076 1915.46 411.177C1915.55 411.867 1915.69 412.549 1915.89 413.217V413.217C1916.61 415.772 1917.89 418.131 1919.64 420.121C1921.3 422.026 1923.38 423.526 1925.71 424.505C1926.67 424.876 1927.64 425.187 1928.63 425.437L1931.63 426.117L1932.69 426.369C1929.07 433.162 1927.06 440.696 1926.82 448.389C1926.57 456.081 1928.1 463.727 1931.28 470.737C1931.28 471.442 1931.1 472.148 1931.03 472.853C1930.62 482.774 1931.05 492.711 1932.34 502.557C1932.69 506.463 1932.89 510.771 1930.5 513.87C1929.41 515.089 1928.18 516.179 1926.85 517.12C1928.21 515.356 1929.59 513.618 1931 511.88C1927.45 508.302 1921.83 507.848 1916.8 508.201C1907.05 508.93 1897.59 511.821 1889.09 516.666C1883.45 519.917 1877.66 524.225 1871.21 523.469C1867.41 523.041 1863.66 520.95 1859.96 521.957C1857.88 522.809 1855.93 523.964 1854.19 525.384C1852.81 526.372 1851.15 526.885 1849.46 526.845C1845.5 521.983 1839.38 518.682 1834.65 514.727C1829.26 509.928 1824.33 504.639 1819.92 498.929C1811.76 489.078 1803.62 479.202 1795.61 469.25C1788.86 460.886 1781.94 451.841 1780.76 441.133C1780.63 440.071 1780.58 439.002 1780.58 437.933C1780.74 432.846 1781.38 427.784 1782.49 422.817C1782.79 421.617 1782.79 420.363 1782.49 419.163C1781.74 416.644 1778.84 415.712 1776.35 415.157C1776.68 413.217 1776.9 411.227 1777.03 409.337C1778.44 387.67 1776.9 365.65 1781.49 344.436C1783.22 336.273 1786.07 328.009 1791.94 322.088C1801.13 312.792 1816.52 310.549 1823.57 299.539C1829.46 290.368 1827.12 277.393 1819.71 269.306C1812.31 261.218 1800.9 257.918 1790.05 258.321C1787 258.216 1783.99 259.023 1781.41 260.639C1778.99 262.785 1777.19 265.531 1776.17 268.6L1765.37 294.878C1762.24 301.72 1759.59 308.775 1757.46 315.991C1754.44 327.027 1753.76 338.666 1751.37 349.802C1751.37 358.369 1745.85 369.051 1742.83 376.937C1739.45 385.806 1735.8 394.573 1732.76 403.618C1732 405.886 1729.36 412.613 1727.72 418.735C1727.1 419.095 1726.53 419.527 1726.01 420.02C1724.69 421.706 1723.5 423.482 1722.43 425.336C1720.14 428.359 1716.41 429.972 1713.89 432.894C1711.37 435.817 1710.85 441.183 1714.35 442.645C1715.06 442.884 1715.79 443.044 1716.54 443.123C1717 443.162 1717.45 443.238 1717.9 443.35C1721.67 444.408 1723.16 449.17 1722.61 453.1C1722.05 457.031 1720.09 460.659 1719.76 464.589C1719.08 471.543 1723.16 478.018 1727.09 483.863C1731.16 490.199 1735.65 496.252 1740.54 501.978C1744.09 505.959 1748.09 509.536 1751.67 513.366C1765.29 527.374 1776.12 543.751 1788.36 558.968C1792.76 564.712 1797.77 569.966 1803.29 574.639C1806.9 577.462 1810.68 580.062 1814.6 582.424L1835.66 595.778C1838.04 597.528 1840.74 598.803 1843.61 599.532C1844.55 599.658 1845.5 599.658 1846.43 599.532C1846.56 600.162 1846.66 600.766 1846.81 601.396C1848.45 607.997 1852.05 613.993 1852.45 620.72C1852.86 627.447 1852.25 634.325 1852.73 641.128C1853.18 647.401 1854.57 653.725 1854.92 659.898C1855.63 671.79 1852.7 683.531 1849.88 695.17C1845.63 712.202 1843.06 729.586 1834.77 745.031C1832.46 749.288 1829.74 753.622 1829.74 758.485C1829.74 759.064 1829.74 759.669 1829.89 760.248L1826.11 762.39C1825 763.02 1823.89 763.649 1822.89 764.304C1818.1 767.429 1812.99 770.88 1811.03 776.272C1809.44 780.631 1810.17 785.619 1808.26 789.852C1808.16 790.042 1808.06 790.227 1807.95 790.406C1805.94 794.336 1801.93 797.259 1801.03 801.567C1800.35 804.868 1801.66 808.37 1801.03 811.645C1801.03 811.645 1801.03 811.645 1801.03 811.771C1800.45 813.416 1800 815.1 1799.67 816.81C1799.64 817.369 1799.69 817.928 1799.82 818.473C1800.3 820.382 1801.35 822.097 1802.84 823.386C1803.75 824.257 1804.73 825.042 1805.79 825.729C1806.86 826.434 1807.97 827.089 1809.11 827.694L1809.77 828.047C1810.72 828.551 1811.68 829.029 1812.66 829.483L1813.32 829.76C1814.45 830.264 1815.61 830.717 1816.77 831.121L1817.57 831.373C1818.48 831.675 1819.41 831.952 1820.34 832.179L1820.97 832.38L1821.55 832.506L1824.07 833.035L1825 833.212C1826.11 833.397 1827.24 833.548 1828.4 833.665H1829.41C1830.27 833.665 1831.1 833.791 1831.93 833.816H1833.11C1833.99 833.816 1834.85 833.816 1835.63 833.816H1836.54C1837.72 833.816 1838.9 833.64 1840.09 833.489H1840.47C1841.52 833.338 1842.58 833.161 1843.64 832.935L1844.44 832.758C1845.43 832.531 1846.41 832.305 1847.39 832.002L1847.92 831.851C1849.1 831.499 1850.29 831.121 1851.45 830.667C1855.45 829.019 1859.34 827.091 1863.08 824.898C1865.6 823.512 1868.12 822.101 1870.64 820.816C1872.5 819.874 1874.42 819.033 1876.38 818.297C1881.14 816.261 1886.32 815.397 1891.49 815.777C1894.04 816.125 1896.56 816.638 1899.04 817.314C1899.04 817.591 1899.04 817.868 1899.04 818.145C1901.09 830.239 1903.11 842.332 1905.11 854.426C1908.41 852.051 1911.9 849.953 1915.54 848.152C1914.86 849.978 1914.41 851.883 1914.2 853.821C1914.05 855.32 1914.05 856.831 1914.2 858.331C1914.43 860.724 1914.93 863.37 1913.5 865.259C1912.62 866.418 1910.98 867.073 1910.5 868.383C1910.15 869.723 1910.07 871.118 1910.25 872.49C1910.15 874.056 1909.48 875.533 1908.38 876.652C1907.28 877.771 1905.82 878.458 1904.26 878.587C1904.98 880.615 1904.99 882.827 1904.3 884.866C1903.61 886.905 1902.26 888.651 1900.45 889.824C1899.4 890.331 1898.42 890.975 1897.53 891.739C1896.67 892.852 1896.09 894.157 1895.84 895.543C1892.52 908.02 1885.67 919.276 1876.13 927.969C1872.54 930.784 1869.28 933.977 1866.38 937.492C1864.59 940.215 1863.11 943.131 1861.97 946.184C1855.26 962.611 1848.44 979.047 1841.52 995.49C1837.7 1004.69 1833.97 1014.03 1832.76 1023.94C1829.74 1051.09 1805.56 1074.12 1810.09 1101.08C1811.01 1107.82 1813.72 1114.18 1817.95 1119.5C1822.99 1125.57 1830.54 1129.05 1838.1 1131.87C1857.51 1139.43 1877.99 1143.56 1898.39 1147.72L1930.42 1154.29C1936.71 1155.74 1943.09 1156.75 1949.51 1157.32C1957.24 1157.84 1965.17 1157.11 1972.7 1159.08C1977.36 1160.29 1981.82 1162.53 1986.63 1162.78C1990.76 1163.01 1995.85 1162.13 1998.29 1165.5C2000.73 1168.88 1998.84 1173.34 2001.16 1176.34C2004.89 1181.1 2013.98 1176.34 2018.03 1180.82C2019.14 1182.54 2019.99 1184.42 2020.55 1186.39C2021.17 1187.61 2022.03 1188.69 2023.07 1189.56C2023.32 1190.99 2023.42 1192.43 2023.37 1193.87C2022.85 1199.72 2021.63 1205.49 2019.75 1211.06C2016.73 1221.28 2013.71 1231.52 2010.71 1241.77C2009.56 1245.39 2008.72 1249.09 2008.19 1252.85C2008 1254.68 2008 1256.52 2008.19 1258.35C2008.72 1263.91 2011.92 1269.66 2017.23 1271.47C2021.35 1272.56 2025.73 1272.02 2029.47 1269.96C2033.07 1268.08 2036.45 1265.8 2039.54 1263.16C2045.12 1258.94 2050.02 1253.89 2054.07 1248.19C2066.66 1229.35 2062.58 1203.85 2071.42 1183.01C2077.29 1169.11 2088.73 1157.82 2092.53 1143.16C2093.42 1140.37 2093.52 1137.38 2092.83 1134.54C2091.24 1129.5 2085.88 1126.63 2080.87 1124.81H2080.64C2076.52 1123.35 2072.32 1122.14 2068.05 1121.21C2066.99 1120.98 2065.91 1120.81 2064.83 1120.63C2062.43 1118.68 2060.52 1116.2 2059.26 1113.38C2059.06 1111.88 2058.66 1110.41 2058.08 1109.02C2057.68 1108.42 2057.14 1107.92 2056.51 1107.57C2055.88 1107.22 2055.17 1107.02 2054.45 1107C2051.93 1106.75 2048.56 1107.66 2045.81 1107.46C2040.2 1107.05 2036.47 1101.53 2031.43 1098.99C2026.4 1096.45 2020.93 1097.08 2015.57 1097.45C2013.65 1097.72 2011.7 1097.6 2009.82 1097.1C2007.59 1096.07 2005.54 1094.66 2003.78 1092.94C2000.68 1090.53 1997.06 1088.87 1993.21 1088.1C1989.36 1087.32 1985.38 1087.46 1981.59 1088.48C1979.18 1089.46 1976.63 1090.04 1974.04 1090.2C1969.13 1089.92 1965.65 1085.54 1962.03 1082.21C1952.1 1073.12 1937.98 1070.72 1925.94 1064.75C1924.1 1064.06 1922.56 1062.74 1921.61 1061.02C1920.22 1057.6 1923.34 1054.17 1926.17 1051.83L1946.87 1034.62C1969.53 1015.77 1997.86 1001.59 2008.39 973.949C2009.49 970.243 2011.19 966.745 2013.43 963.594C2014.24 962.633 2015.18 961.785 2016.22 961.075C2020.8 958.106 2026.35 957.023 2031.71 958.051C2038.24 959.514 2044.43 962.216 2049.94 966.013C2058.96 971.471 2067.73 977.35 2076.26 983.649C2084.71 989.689 2092.74 996.288 2100.31 1003.4C2113.53 1016 2124.54 1030.94 2136.85 1044.52C2149.17 1058.1 2163.24 1070.77 2180.34 1077.27C2197.44 1083.77 2218.12 1083.5 2232.8 1072.59C2249.75 1059.99 2255.19 1037.46 2259.47 1016.81C2268.91 1007.68 2271.76 993.802 2276.37 981.533C2279.26 973.747 2282.97 966.416 2286.09 958.656C2289.82 949.535 2292.74 940.113 2295.66 930.715C2298.97 921.278 2301.22 911.501 2302.36 901.565C2303.57 885.868 2299.36 869.164 2303.77 854.426C2309.58 853.141 2314.87 849.865 2320.59 847.951C2329.1 845.154 2338.22 845.608 2347.23 845.658H2347.81C2350.92 845.989 2354.05 845.251 2356.68 843.567C2359.7 841.047 2360.18 836.739 2360.33 832.834C2360.68 823.184 2360.08 812.351 2352.85 806.102ZM1987.97 376.332C1985.88 376.848 1983.73 377.001 1981.59 376.786L1987.97 376.332Z" fill="url(#paint0_linear)"/>
<path d="M1997.89 529.713C1994.84 532.304 1991.26 534.204 1987.41 535.281L1969.56 541.681C1959.86 545.158 1949.74 548.66 1939.51 547.4C1933.8 546.695 1909.29 543.092 1905.59 538.632C1899.95 531.729 1919.72 521.576 1926.47 515.756C1928 514.655 1929.41 513.406 1930.7 512.027C1933.22 508.953 1932.89 504.645 1932.54 500.765C1931.26 490.936 1930.82 481.015 1931.23 471.111C1931.42 468.75 1931.76 466.403 1932.23 464.081C1934.75 452.492 1945.53 456.725 1954.04 459.798C1964.29 463.128 1974.2 467.422 1983.63 472.622C1986.51 474.105 1989.01 476.225 1990.94 478.82C1994.66 484.464 1993.18 491.871 1992.57 498.976C1992.05 504.494 1992.07 509.784 1995.52 513.79C1997.26 515.322 1998.85 517.009 2000.28 518.829C2001.09 520.663 2001.29 522.706 2000.86 524.662C2000.43 526.618 1999.39 528.387 1997.89 529.713Z" fill="#BE6F72"/>
<path d="M1751.24 354.136C1753.76 342.974 1754.31 331.46 1757.33 320.4C1759.47 313.209 1762.11 306.178 1765.24 299.362L1776.35 273.437C1777.36 270.376 1779.17 267.638 1781.59 265.501C1784.18 263.897 1787.18 263.091 1790.22 263.183C1801.08 262.78 1812.49 266.156 1819.89 274.143C1827.29 282.129 1829.64 295.054 1823.74 304.2C1816.69 315.21 1801.31 317.427 1792.11 326.699C1786.25 332.619 1783.4 340.858 1781.66 348.996C1777.08 370.159 1778.61 392.104 1777.2 413.721C1776.75 420.448 1775.44 428.132 1769.65 431.609C1766.15 433.325 1762.26 434.082 1758.37 433.801L1741.85 434.078C1739.08 434.078 1729.03 435.817 1727.19 433.725C1723.97 430.072 1731.32 411.882 1732.65 407.825C1735.63 398.831 1739.28 390.063 1742.73 381.22C1745.73 373.334 1751.24 362.677 1751.24 354.136Z" fill="#BE6F72"/>
<path d="M2092.35 1145.65C2088.55 1160.21 2077.12 1171.55 2071.25 1185.43C2062.41 1206.22 2066.39 1231.64 2053.9 1250.43C2049.84 1256.14 2044.94 1261.2 2039.37 1265.43C2036.27 1268.06 2032.89 1270.33 2029.29 1272.2C2025.56 1274.26 2021.17 1274.8 2017.05 1273.71C2011.74 1271.9 2008.54 1266.16 2008.01 1260.61C2007.82 1258.8 2007.82 1256.96 2008.01 1255.15C2008.54 1251.4 2009.38 1247.7 2010.53 1244.09C2013.55 1233.89 2016.57 1223.68 2019.57 1213.45C2021.45 1207.9 2022.67 1202.15 2023.2 1196.32C2023.52 1189.97 2019.5 1181.7 2021.21 1175.78C2021.99 1173.11 2024.91 1170.74 2026.24 1168.5C2028.14 1165.27 2029.6 1161.81 2030.58 1158.2C2032.64 1151.17 2034.05 1143.66 2038.38 1137.74C2041.21 1134.23 2044.52 1131.13 2048.2 1128.54C2050.93 1126.16 2054.12 1124.36 2057.57 1123.28C2060.92 1122.69 2064.37 1122.85 2067.65 1123.76C2071.92 1124.67 2076.12 1125.86 2080.24 1127.33H2080.46C2085.5 1129.15 2090.84 1131.94 2092.43 1137.03C2093.2 1139.86 2093.17 1142.84 2092.35 1145.65V1145.65Z" fill="#23425A"/>
<path d="M2360.3 835.907C2360.15 839.812 2359.68 844.171 2356.65 846.615C2354.02 848.299 2350.9 849.037 2347.79 848.706H2347.11C2338.12 848.706 2328.98 848.202 2320.46 850.999C2313.99 853.14 2308.05 857.071 2301.3 857.852C2292.01 858.91 2283.27 853.821 2275.03 849.386C2267.28 845.208 2259.32 841.424 2251.18 838.049C2245.85 835.857 2234.94 834.446 2232.37 828.601C2231.49 825.835 2230.75 823.026 2230.16 820.186C2229.73 818.916 2229.22 817.678 2228.62 816.482C2227.11 813.929 2226.15 811.089 2225.8 808.143C2225.81 805.207 2226.82 802.362 2228.67 800.081C2230.72 797.647 2233.24 795.645 2236.07 794.188C2238.9 792.73 2241.99 791.848 2245.17 791.59C2251.51 791.097 2257.9 791.435 2264.15 792.598L2326.16 801.517C2330.94 802.197 2335.75 802.877 2340.46 804.036C2344.93 804.812 2349.15 806.662 2352.75 809.428C2360.08 815.575 2360.68 826.384 2360.3 835.907Z" fill="#23425A"/>
<path d="M2305.81 852.032C2298.25 867.98 2303.69 886.851 2302.33 904.487C2301.19 914.398 2298.94 924.151 2295.63 933.562C2292.71 942.934 2289.79 952.332 2286.06 961.427C2282.94 968.985 2279.24 976.544 2276.34 984.253C2271.73 996.548 2268.79 1010.38 2259.44 1019.53C2255.16 1040.14 2249.72 1062.66 2232.78 1075.16C2218.04 1086.04 2197.52 1086.42 2180.32 1079.84C2163.12 1073.27 2149.14 1060.67 2136.83 1047.09C2124.51 1033.51 2113.51 1018.72 2100.28 1006.07C2092.71 998.957 2084.66 992.366 2076.18 986.344C2067.65 980.147 2058.88 974.318 2049.87 968.859C2044.35 965.081 2038.16 962.387 2031.63 960.923C2026.27 959.895 2020.73 960.978 2016.15 963.946C2015.11 964.657 2014.17 965.505 2013.35 966.466C2011.11 969.605 2009.41 973.096 2008.31 976.796C1997.74 1004.36 1969.36 1018.52 1946.69 1037.31L1925.99 1054.47C1923.17 1056.81 1920.05 1060.24 1921.43 1063.64C1922.38 1065.36 1923.92 1066.68 1925.76 1067.37C1937.8 1073.32 1951.93 1075.71 1961.85 1084.78C1965.48 1088.11 1968.95 1092.49 1973.86 1092.74C1976.46 1092.59 1979.01 1092.02 1981.42 1091.05C1985.21 1090.03 1989.18 1089.89 1993.03 1090.66C1996.88 1091.43 2000.5 1093.08 2003.6 1095.49C2005.37 1097.21 2007.41 1098.61 2009.65 1099.64C2011.52 1100.14 2013.47 1100.26 2015.39 1100C2020.75 1099.62 2026.45 1099.14 2031.26 1101.53C2036.07 1103.93 2040.02 1109.57 2045.64 1109.97C2048.38 1110.18 2051.66 1109.27 2054.27 1109.52C2055 1109.54 2055.7 1109.74 2056.33 1110.09C2056.96 1110.44 2057.5 1110.94 2057.9 1111.54C2058.49 1112.92 2058.89 1114.38 2059.08 1115.87C2060.12 1119.42 2063.59 1121.59 2065.86 1124.51C2069.33 1129 2069.84 1135.09 2069.49 1140.76C2068.34 1158.49 2060.45 1175.1 2047.42 1187.17C2043.73 1190.95 2039.01 1193.58 2033.85 1194.73C2031.27 1195.27 2028.58 1194.98 2026.16 1193.91C2023.75 1192.84 2021.74 1191.04 2020.4 1188.76C2019.84 1186.8 2018.99 1184.93 2017.88 1183.22C2013.83 1178.76 2004.74 1183.49 2001.01 1178.73C1998.69 1175.76 2000.36 1171 1998.14 1167.92C1995.92 1164.85 1990.58 1165.4 1986.48 1165.23C1981.67 1164.97 1977.21 1162.71 1972.55 1161.52C1965 1159.56 1957.09 1160.29 1949.36 1159.76C1942.93 1159.19 1936.56 1158.18 1930.27 1156.74L1898.24 1150.19C1877.84 1146.03 1857.36 1141.82 1837.95 1134.39C1830.52 1131.57 1823.04 1128.09 1817.8 1122.04C1813.58 1116.73 1810.86 1110.38 1809.94 1103.65C1805.39 1076.77 1829.56 1053.79 1832.61 1026.71C1833.69 1016.83 1837.65 1007.51 1841.37 998.337C1848.21 981.944 1855.02 965.542 1861.82 949.132C1862.92 946.077 1864.36 943.153 1866.1 940.415C1869 936.907 1872.27 933.723 1875.85 930.916C1885.39 922.252 1892.24 911.021 1895.57 898.566C1895.81 897.181 1896.39 895.875 1897.25 894.762C1898.15 894.014 1899.13 893.38 1900.18 892.872C1901.97 891.701 1903.33 889.958 1904.02 887.925C1904.71 885.892 1904.69 883.685 1903.98 881.661C1905.54 881.531 1907.01 880.845 1908.11 879.726C1909.21 878.607 1909.87 877.13 1909.97 875.564C1909.79 874.2 1909.87 872.813 1910.22 871.482C1910.83 870.172 1912.34 869.517 1913.22 868.358C1914.66 866.468 1914.15 863.823 1913.93 861.455C1913.77 859.955 1913.77 858.444 1913.93 856.945C1914.48 851.61 1916.86 846.632 1920.68 842.861C1926.69 836.94 1935.26 838.477 1943.57 837.066C1951.86 835.276 1959.95 832.686 1967.74 829.332C1989.6 820.718 2012.6 815.394 2036.02 813.535C2059.55 811.683 2083.18 815.448 2104.97 824.519C2108.14 825.804 2111.13 827.498 2113.86 829.558C2115.8 831.054 2117.39 832.954 2118.52 835.126C2119.45 837.793 2120.59 840.38 2121.94 842.861C2124.64 846.539 2129.72 847.724 2132.67 851.2C2135.62 854.677 2135.87 860.548 2138.31 864.856C2141.81 871.003 2149.92 873.85 2152.34 880.527C2153.09 882.643 2153.2 884.961 2153.75 887.153C2155.11 892.646 2159.19 896.979 2162.79 901.313C2175.99 917.11 2184.45 936.33 2187.17 956.741C2187.97 943.967 2196.56 932.655 2207.31 925.6C2210.21 923.711 2213.56 921.619 2214.14 918.193C2214.87 913.859 2210.66 910.005 2210.94 905.596C2211.25 903.443 2212.12 901.409 2213.46 899.7C2218.26 892.741 2223.53 886.116 2229.22 879.872C2232.32 876.471 2235.8 872.314 2234.51 867.829C2233.53 864.478 2230.11 862.513 2228.22 859.59C2227.11 857.848 2226.55 855.819 2226.6 853.758C2226.64 851.696 2227.29 849.694 2228.47 848.001C2230.23 845.607 2233.03 843.869 2233.88 841.022C2234.87 837.671 2232.67 834.043 2233.35 830.591C2234.27 827.827 2236.1 825.456 2238.54 823.864C2241.88 820.821 2245.68 818.321 2249.8 816.457C2256.45 813.938 2263.85 814.87 2270.9 815.852C2282.69 817.49 2295.91 820.01 2302.56 829.886C2306.81 836.059 2308.98 845.431 2305.81 852.032Z" fill="#65617D"/>
<path opacity="0.1" d="M2360.3 835.907C2360.15 839.813 2359.67 844.171 2356.65 846.615C2354.02 848.299 2350.89 849.037 2347.79 848.706H2347.11C2348.14 843.466 2354.51 840.468 2355.62 835.152C2355.81 833.519 2355.66 831.864 2355.19 830.291C2354.71 828.717 2353.91 827.259 2352.85 826.006C2347.46 818.725 2338.8 814.693 2330.19 811.746C2305.85 803.4 2279.79 801.448 2254.48 806.077C2247.6 807.198 2240.91 809.258 2234.59 812.199C2232.49 813.51 2230.48 814.941 2228.54 816.482C2227.03 813.929 2226.07 811.089 2225.72 808.143C2225.73 805.207 2226.75 802.362 2228.59 800.081C2230.65 797.647 2233.16 795.645 2235.99 794.188C2238.83 792.73 2241.92 791.848 2245.09 791.59C2251.44 791.097 2257.82 791.435 2264.08 792.598L2326.08 801.517C2330.86 802.197 2335.67 802.877 2340.38 804.036C2344.86 804.812 2349.07 806.662 2352.67 809.428C2360.08 815.575 2360.68 826.384 2360.3 835.907Z" fill="black"/>
<path opacity="0.1" d="M2092.35 1145.65C2088.55 1160.21 2077.12 1171.55 2071.25 1185.43C2062.41 1206.22 2066.39 1231.64 2053.9 1250.43C2049.84 1256.14 2044.94 1261.2 2039.37 1265.43C2036.27 1268.06 2032.89 1270.33 2029.29 1272.2C2025.56 1274.26 2021.17 1274.8 2017.05 1273.71C2011.74 1271.9 2008.54 1266.16 2008.01 1260.61C2007.82 1258.8 2007.82 1256.96 2008.01 1255.15L2008.16 1255.55C2010.35 1260.84 2013.93 1266.38 2019.57 1267.32C2021.69 1267.47 2023.81 1267.18 2025.82 1266.48C2027.82 1265.77 2029.65 1264.66 2031.21 1263.21C2039.52 1256.53 2044.35 1246.58 2048.96 1236.98C2052.57 1230.06 2055.42 1222.77 2057.47 1215.24C2058.48 1210.95 2058.96 1206.57 2059.99 1202.29C2064.78 1181.48 2081.07 1164.5 2084.67 1143.41C2084.96 1141.96 2085.03 1140.47 2084.87 1139C2084.4 1137.08 2083.67 1135.23 2082.71 1133.51C2081.83 1131.56 2081.19 1129.51 2080.79 1127.41C2085.83 1129.22 2091.17 1132.02 2092.75 1137.11C2093.4 1139.94 2093.27 1142.89 2092.35 1145.65Z" fill="black"/>
<path opacity="0.1" d="M2054.32 1109.52C2051.99 1115.62 2048.07 1120.98 2042.97 1125.04C2035.8 1130.51 2027.4 1134.14 2018.51 1135.62C2014.38 1136.68 2010.03 1136.63 2005.92 1135.47C2000.33 1133.53 1996.3 1128.29 1990.59 1126.78C1986.51 1125.67 1982.12 1126.65 1977.99 1126.05C1970.56 1125.02 1964.8 1119.35 1958.8 1114.81C1940.44 1101.01 1916.34 1096.55 1897.99 1082.74C1897.17 1082.24 1896.49 1081.53 1896.02 1080.7C1895.67 1079.79 1895.54 1078.82 1895.64 1077.85C1895.71 1069.48 1897.59 1061.22 1901.16 1053.64C1904.08 1048.35 1907.56 1043.39 1911.53 1038.85C1927.98 1018.69 1944.5 998.387 1964.19 981.381C1972.45 974.251 1981.47 967.6 1991.89 964.375C1997.69 962.586 2009.12 960.898 2016.17 963.921C2015.13 964.632 2014.19 965.479 2013.38 966.441C2011.13 969.58 2009.43 973.071 2008.34 976.77C1997.74 1004.36 1969.36 1018.52 1946.69 1037.31L1925.99 1054.47C1923.17 1056.81 1920.05 1060.24 1921.43 1063.64C1922.38 1065.36 1923.92 1066.68 1925.76 1067.37C1937.8 1073.32 1951.93 1075.71 1961.85 1084.78C1965.48 1088.11 1968.95 1092.49 1973.86 1092.74C1976.46 1092.59 1979.01 1092.02 1981.42 1091.05C1985.21 1090.03 1989.18 1089.89 1993.03 1090.66C1996.88 1091.43 2000.5 1093.08 2003.6 1095.49C2005.37 1097.21 2007.41 1098.61 2009.65 1099.64C2011.52 1100.14 2013.47 1100.26 2015.39 1100C2020.76 1099.62 2026.45 1099.14 2031.26 1101.53C2036.07 1103.93 2040.02 1109.57 2045.64 1109.97C2048.43 1110.18 2051.71 1109.22 2054.32 1109.52Z" fill="black"/>
<path d="M1822.71 767.58C1817.93 770.653 1812.84 774.13 1810.87 779.472C1809.26 783.83 1810.02 788.819 1808.08 793.051C1806.14 797.284 1801.78 800.232 1800.83 804.767C1800.15 808.067 1801.48 811.544 1800.83 814.845C1800.26 816.561 1799.79 818.311 1799.44 820.085C1799.19 823.839 1802.41 826.888 1805.56 828.979C1812.26 833.34 1819.89 836.068 1827.84 836.943C1835.79 837.818 1843.83 836.816 1851.32 834.018C1858.04 831.498 1864.11 827.392 1870.56 824.167C1876.85 820.545 1884.04 818.796 1891.29 819.128C1895.44 819.581 1899.42 821.093 1903.58 821.647C1905.63 822.053 1907.75 821.953 1909.75 821.356C1911.76 820.759 1913.59 819.683 1915.08 818.221C1916.37 816.448 1917.23 814.406 1917.6 812.25C1921.1 798.418 1919.52 783.755 1916.19 769.847C1912.87 755.94 1907.83 742.561 1904.28 728.73C1901.76 718.475 1899.82 707.969 1895.62 698.269C1891.41 688.569 1884.33 679.55 1874.44 675.846C1873.66 675.463 1872.77 675.348 1871.92 675.518C1871.28 675.784 1870.72 676.199 1870.28 676.728C1862.45 685.028 1856.55 694.956 1853.01 705.802C1849.05 717.871 1847.97 730.67 1844.34 742.788C1842.78 747.827 1840.77 754.579 1836.79 758.434C1832.81 762.289 1827.22 764.682 1822.71 767.58Z" fill="#23425A"/>
<path opacity="0.1" d="M1917.68 812.174C1917.26 814.338 1916.35 816.379 1915.03 818.145C1913.54 819.612 1911.71 820.69 1909.7 821.283C1907.7 821.876 1905.57 821.966 1903.52 821.546C1899.39 821.043 1895.42 819.506 1891.26 819.027C1884.01 818.691 1876.82 820.44 1870.53 824.066C1864.09 827.291 1857.94 831.297 1851.27 833.892C1841.51 837.595 1830.84 838.202 1820.72 835.63C1815.35 834.279 1810.24 832.03 1805.61 828.979C1802.44 826.913 1799.24 823.94 1799.49 820.085C1799.84 818.319 1800.31 816.578 1800.88 814.87C1801.53 811.569 1800.22 808.093 1800.88 804.792C1801.83 800.257 1806.22 797.234 1808.13 793.051C1810.04 788.869 1809.31 783.855 1810.9 779.497C1812.86 774.13 1817.98 770.678 1822.76 767.579C1827.55 764.481 1833.24 762.112 1837.07 758.358C1837.56 757.774 1838.01 757.15 1838.4 756.494C1841.16 752.235 1843.19 747.542 1844.39 742.612C1848.1 730.468 1849.1 717.694 1853.03 705.601C1856.59 694.763 1862.5 684.845 1870.33 676.551C1870.75 676.01 1871.31 675.593 1871.94 675.342C1872.79 675.169 1873.68 675.275 1874.46 675.644C1884.33 679.373 1891.41 688.393 1895.64 698.093C1899.87 707.793 1901.66 718.248 1904.31 728.528C1907.83 742.36 1912.89 755.788 1916.22 769.671C1919.54 783.553 1921.18 798.317 1917.68 812.174Z" fill="black"/>
<path opacity="0.1" d="M1992.57 504.9C1980.73 508.665 1967.92 507.917 1956.59 502.801C1945.27 497.685 1936.23 488.562 1931.23 477.186C1931.42 474.825 1931.76 472.478 1932.23 470.157C1934.75 458.567 1945.53 462.8 1954.04 465.874C1964.29 469.204 1974.2 473.498 1983.63 478.698C1986.51 480.18 1989.01 482.3 1990.94 484.896C1994.66 490.464 1993.18 497.871 1992.57 504.9Z" fill="black"/>
<path d="M1977.36 504.749C2005.18 504.749 2027.73 482.189 2027.73 454.36C2027.73 426.531 2005.18 403.971 1977.36 403.971C1949.55 403.971 1927 426.531 1927 454.36C1927 482.189 1949.55 504.749 1977.36 504.749Z" fill="#BE6F72"/>
<path opacity="0.1" d="M2114.03 830.919C2114.03 835.101 2108.37 836.437 2104.16 836.21C2089.05 835.328 2074.27 831.171 2059.31 832.431C2040.4 834.144 2023.02 844.6 2004.06 845.557C1996.75 845.935 1989.33 844.852 1982.12 846.187C1972.81 847.925 1964.49 853.594 1955 854.4C1946.77 855.106 1938.63 852.007 1930.4 852.334C1924.64 852.678 1919.03 854.277 1913.95 857.021C1914.5 851.686 1916.89 846.708 1920.7 842.937C1926.72 837.016 1935.28 838.553 1943.59 837.142C1951.88 835.352 1959.98 832.762 1967.77 829.407C1989.62 820.793 2012.63 815.47 2036.04 813.61C2059.56 811.739 2083.18 815.478 2104.97 824.519C2108.14 825.804 2111.13 827.498 2113.86 829.558C2114 829.998 2114.06 830.459 2114.03 830.919V830.919Z" fill="black"/>
<path d="M1954.07 546.371L1933.67 538.812L1925.06 535.638C1921.55 534.167 1917.85 533.183 1914.08 532.715C1904.21 531.96 1894.91 538.535 1889.65 546.925C1884.39 555.315 1882.4 565.317 1880.71 575.068C1878.39 588.404 1876.43 601.791 1874.82 615.228C1873.08 627.362 1872.2 639.603 1872.17 651.861C1872.75 683.052 1879.35 713.814 1886.6 744.174C1890.15 757.635 1892.84 771.31 1894.64 785.115C1895.24 790.809 1895.52 796.528 1896.12 802.248C1896.78 808.672 1897.83 815.021 1898.89 821.395L1904.96 857.6C1912.52 852.234 1921.1 847.522 1930.4 847.245C1938.63 846.943 1946.79 850.017 1955 849.311C1964.44 848.53 1972.81 842.861 1982.12 841.123C1989.33 839.788 1996.75 840.846 2004.08 840.493C2023.02 839.536 2040.42 829.055 2059.31 827.367C2074.3 826.006 2089.18 830.239 2104.19 831.121C2108.37 831.373 2114.03 830.037 2114.03 825.83C2114.03 822.907 2111.11 820.967 2108.57 819.506C2096.58 812.284 2085.17 804.138 2074.45 795.143C2064.52 787.282 2054.45 779.22 2047.63 768.587C2031.18 743.015 2036.82 708.423 2022.79 681.439C2011.39 659.52 2022.79 630.798 2022.79 606.082C2022.79 593.762 2022.79 581.291 2019.9 569.323C2018.09 562.63 2015.83 556.065 2013.15 549.671L2003.35 524.855C2003.15 524.129 2002.75 523.475 2002.19 522.965C2001.54 522.511 2000.75 522.273 1999.95 522.285C1994.07 521.932 1988.27 523.792 1983.68 527.5C1979.08 531.254 1976.13 536.646 1971.6 540.551C1966.64 544.859 1960.24 548.638 1954.07 546.371Z" fill="#93C2DB"/>
<path d="M1986.98 532.06C1988.6 525.157 1990.33 517.976 1994.94 512.585C1999.55 507.193 2007.96 504.346 2013.9 508.201C2020.65 512.585 2020.93 522.713 2026.7 528.357C2031.73 533.194 2039.29 533.572 2046.14 534.202C2058.46 535.323 2070.55 538.173 2082.08 542.667C2084.32 543.364 2086.37 544.591 2088.05 546.245C2091.19 549.822 2090.56 555.315 2092.12 559.774C2094.27 565.519 2100.18 569.172 2102.48 574.891C2104.99 581.24 2102.48 588.345 2100.36 594.87C2096.56 606.586 2094.16 618.755 2090.46 630.521C2086.76 642.287 2081.5 653.876 2072.83 662.745C2069.01 666.675 2063.31 670.303 2058.28 667.96L2056.34 681.943C2055.77 684.898 2055.77 687.933 2056.34 690.887C2056.63 692.365 2057.34 693.731 2058.37 694.827C2059.4 695.924 2060.72 696.706 2062.18 697.085C2062.56 699.252 2064.85 700.285 2066.71 701.469C2068.09 702.41 2069.27 703.615 2070.17 705.014C2071.08 706.413 2071.7 707.978 2072 709.619C2072.29 711.259 2072.26 712.942 2071.91 714.571C2071.55 716.199 2070.87 717.74 2069.91 719.105C2068.33 721.247 2065.98 722.935 2065.23 725.479C2064.1 729.158 2066.79 733.038 2070.06 735.053C2073.34 737.069 2077.19 738.001 2080.52 739.941C2087.42 743.922 2091.12 751.757 2093.48 759.366C2095.25 765.111 2096.71 771.334 2101.04 775.516C2102.7 777.103 2104.69 778.313 2106.28 779.975C2109.02 783.221 2110.61 787.291 2110.79 791.54C2111.48 796.806 2110.32 802.148 2107.51 806.656C2102.48 813.862 2093.08 816.004 2084.85 819.254C2071.47 824.746 2060.47 834.572 2048.68 842.937C2043.88 846.804 2038.23 849.465 2032.19 850.697C2024.03 851.78 2015.99 848.177 2007.79 847.85C2002.87 847.895 1997.99 848.538 1993.23 849.764L1978.12 853.04C1978.92 841.324 1972.48 829.584 1968.88 818.422C1962.08 797.41 1960.82 774.936 1962.43 752.916C1964.04 730.896 1968.52 709.178 1972.96 687.561C1976.05 672.445 1975.75 656.648 1980.51 641.959C1984.97 627.825 1991.34 614.245 1993.68 599.531C1997.51 575.723 1981.59 555.542 1986.98 532.06Z" fill="#23425A"/>
<path d="M2101.54 578.645C2102.93 581.205 2103.91 583.968 2104.44 586.833C2105.6 591.271 2107.79 595.377 2110.81 598.826C2113.34 601.062 2115.59 603.6 2117.51 606.384C2119.83 610.768 2118.95 616.109 2120.03 620.896C2121.29 626.112 2124.94 630.647 2125.47 636.013C2125.48 637.551 2125.63 639.085 2125.9 640.599C2127.53 646.696 2136.5 648.157 2138.49 654.254C2139.82 658.21 2137.53 662.518 2137.96 666.675C2138.27 667.961 2138.35 669.292 2138.19 670.605C2137.62 672.09 2136.62 673.371 2135.31 674.284C2126.98 682.249 2121.21 692.522 2118.74 703.787C2116.32 714.99 2115.04 726.412 2114.94 737.875L2105.09 724.849C2104.05 723.269 2102.72 721.901 2101.17 720.818C2099.91 720.062 2098.45 719.684 2097.16 718.929C2093.43 716.812 2091.97 712.328 2090.54 708.296C2086.55 697.138 2080.58 686.792 2072.91 677.761C2068.91 673.049 2064.25 668.313 2063.37 662.19C2063.1 659.378 2063.25 656.543 2063.82 653.775C2066.34 637.273 2069.03 620.367 2077.07 605.729C2080.82 598.876 2085.68 592.678 2089.28 585.725C2091.7 581.114 2095.1 569.121 2101.54 578.645Z" fill="#23425A"/>
<path d="M1853.11 594.492C1853.15 596.613 1852.61 598.706 1851.55 600.539C1850.58 601.655 1849.33 602.482 1847.92 602.926C1846.52 603.371 1845.02 603.417 1843.59 603.059C1840.72 602.339 1838.02 601.073 1835.63 599.33C1828.61 594.896 1821.59 590.453 1814.58 586.002C1810.66 583.639 1806.88 581.048 1803.27 578.242C1797.75 573.577 1792.74 568.331 1788.34 562.596C1776.1 547.479 1765.27 531.078 1751.64 517.246C1747.94 513.467 1744.09 509.838 1740.51 505.883C1735.62 500.165 1731.13 494.121 1727.06 487.793C1723.13 481.973 1719.06 475.523 1719.74 468.57C1720.14 464.639 1722.03 461.011 1722.58 457.106C1723.14 453.201 1721.65 448.439 1717.87 447.381C1717.43 447.269 1716.97 447.193 1716.51 447.154C1715.77 447.075 1715.03 446.915 1714.32 446.676C1710.82 445.214 1711.35 439.797 1713.87 436.95C1716.39 434.103 1720.11 432.516 1722.4 429.392C1723.47 427.538 1724.67 425.762 1725.98 424.076C1727.67 422.629 1729.68 421.618 1731.85 421.128C1746.37 416.845 1761.74 416.265 1776.55 419.44C1779.07 419.994 1781.94 421.002 1782.69 423.446C1783 424.637 1783 425.884 1782.69 427.074C1781.58 432.042 1780.94 437.103 1780.78 442.191C1780.78 443.252 1780.83 444.312 1780.96 445.365C1782.14 456.048 1789.07 465.093 1795.81 473.432C1803.82 483.359 1811.96 493.21 1820.12 503.036C1824.53 508.73 1829.46 514.001 1834.85 518.783C1839.89 522.965 1846.41 526.341 1850.34 531.707C1853.54 536.041 1852.5 541.962 1852.86 547.177C1854.03 562.924 1854.11 578.734 1853.11 594.492V594.492Z" fill="#23425A"/>
<path d="M2172.94 699.604C2175.43 697.185 2177.67 694.527 2179.64 691.668C2181.75 688.126 2183.44 684.345 2184.67 680.406L2199.28 638.961C2201.6 632.41 2203.91 625.834 2206.84 619.46C2209.86 612.582 2213.43 605.956 2216.73 599.304C2225.22 581.8 2231.78 563.427 2236.3 544.506C2237.1 541.906 2237.36 539.173 2237.08 536.469C2236.38 532.11 2233.08 528.709 2229.93 525.61C2226.76 522.19 2223.16 519.207 2219.2 516.742C2217.22 515.506 2215 514.678 2212.69 514.306C2210.39 513.934 2208.03 514.026 2205.75 514.575C2199.31 516.465 2195.25 523.066 2193.77 529.692C2192.28 536.318 2192.83 543.095 2192.2 549.847C2191.3 559.522 2187.97 568.869 2187.17 578.569C2186.74 584.188 2187.17 589.856 2186.49 595.45C2185.25 602.795 2182.69 609.854 2178.93 616.286C2170.75 631.607 2159.69 645.207 2146.37 656.345C2142.72 659.041 2139.44 662.2 2136.6 665.743C2134.23 669.286 2132.63 673.285 2131.89 677.483C2130.22 683.877 2130.94 690.661 2133.93 696.556C2138.03 703.56 2145.92 706.634 2153.45 708.196C2163.62 710.312 2165.96 706.835 2172.94 699.604Z" fill="#BE6F72"/>
<path d="M1977.67 381.346C1979.83 377.27 1983.15 373.923 1987.21 371.723C1991.27 369.523 1995.88 368.568 2000.48 368.975C2005.11 369.796 2009.42 371.897 2012.92 375.04C2016.42 378.184 2018.97 382.245 2020.28 386.763C2021.46 390.517 2021.94 394.674 2024 397.899C2027.13 402.761 2032.92 404.172 2037.25 407.699C2039.84 410.103 2041.92 412.999 2043.37 416.218C2044.82 419.437 2045.62 422.914 2045.71 426.444C2045.95 433.656 2044.82 440.848 2042.36 447.633C2041.32 450.528 2040.48 453.491 2039.84 456.501C2039.34 459.424 2039.29 462.397 2038.84 465.32C2038.28 469.109 2036.97 472.749 2034.98 476.024C2033 479.3 2030.38 482.145 2027.28 484.392C2026.39 485.112 2025.29 485.512 2024.15 485.526C2022.19 485.299 2020.98 483.006 2020.25 480.94C2016.25 469.376 2017.2 455.242 2009.82 446.02C2006.47 442.301 2002.41 439.279 1997.89 437.127C1996.04 435.936 1993.97 435.155 1991.79 434.834C1988.6 435.006 1985.53 436.129 1982.98 438.059C1977.66 441.626 1971.77 444.235 1965.55 445.769C1962.45 446.503 1959.23 446.536 1956.11 445.865C1953 445.194 1950.07 443.835 1947.55 441.889C1944.07 439.016 1941.53 434.708 1937.67 432.466C1933.82 430.224 1929.79 430.349 1925.99 428.813C1923.57 427.781 1921.41 426.21 1919.68 424.219C1917.96 422.228 1916.71 419.869 1916.04 417.323C1915.36 414.776 1915.28 412.109 1915.79 409.524C1916.3 406.94 1917.39 404.506 1918.99 402.409C1921.51 399.385 1925.23 397.672 1927.47 394.321C1930.37 389.988 1930.12 384.042 1931.5 378.852C1932.32 375.568 1933.91 372.527 1936.14 369.982C1938.37 367.436 1941.18 365.458 1944.32 364.214C1947.37 363.177 1950.65 362.978 1953.8 363.639C1956.95 364.299 1959.87 365.794 1962.25 367.968C1964.77 370.235 1966.79 373.158 1969.25 375.526C1971.69 377.859 1974.67 379.543 1977.93 380.424C1981.19 381.304 1984.61 381.353 1987.89 380.565" fill="#23425A"/>
<path opacity="0.1" d="M2019.07 752.186C2017.6 753.492 2016.56 755.21 2016.09 757.115C2015.61 759.021 2015.72 761.025 2016.4 762.868C2016.95 764.052 2042.94 759.039 2045.69 758.661C2052.54 757.678 2064.55 758.157 2069.16 751.883C2077.37 740.773 2051.93 743.242 2047.27 743.645C2038.41 744.401 2025.82 745.61 2019.07 752.186Z" fill="black"/>
<path d="M1782.64 427.175C1781.53 432.143 1780.89 437.204 1780.73 442.292C1773.17 443.829 1765.32 441.309 1758.06 438.79L1737.24 431.685C1735.97 430.875 1734.44 430.578 1732.97 430.854C1731.49 431.13 1730.17 431.958 1729.28 433.171C1725.93 436.648 1721.32 443.249 1716.69 447.154C1715.94 447.075 1715.21 446.915 1714.5 446.676C1711 445.214 1711.53 439.797 1714.04 436.95C1716.56 434.103 1720.29 432.516 1722.58 429.392C1723.65 427.538 1724.84 425.762 1726.16 424.076C1727.84 422.629 1729.86 421.618 1732.02 421.128C1746.55 416.845 1761.92 416.265 1776.73 419.44C1779.24 419.994 1782.11 421.002 1782.87 423.446C1783.12 424.688 1783.04 425.972 1782.64 427.175Z" fill="#23425A"/>
<path opacity="0.1" d="M1782.64 427.175C1781.53 432.143 1780.89 437.204 1780.73 442.292C1773.17 443.829 1765.32 441.309 1758.06 438.79L1737.24 431.685C1735.97 430.875 1734.44 430.578 1732.97 430.854C1731.49 431.13 1730.17 431.958 1729.28 433.171C1725.93 436.648 1721.32 443.249 1716.69 447.154C1715.94 447.075 1715.21 446.915 1714.5 446.676C1711 445.214 1711.53 439.797 1714.04 436.95C1716.56 434.103 1720.29 432.516 1722.58 429.392C1723.65 427.538 1724.84 425.762 1726.16 424.076C1727.84 422.629 1729.86 421.618 1732.02 421.128C1746.55 416.845 1761.92 416.265 1776.73 419.44C1779.24 419.994 1782.11 421.002 1782.87 423.446C1783.12 424.688 1783.04 425.972 1782.64 427.175Z" fill="black"/>
<path opacity="0.1" d="M1973.16 905.495C1976.78 906.704 1980.71 908.468 1981.95 912.096L1952.78 904.689L1937.67 900.834C1935 900.154 1925.43 899.373 1923.67 897.282C1921.15 894.208 1930.09 896.324 1931.71 896.551C1936.59 897.282 1941.48 898.037 1946.34 898.919C1955.5 900.557 1964.32 903.253 1973.16 905.495Z" fill="black"/>
<path opacity="0.1" d="M1984.47 931.319C1981.95 929.631 1974.72 929.833 1971.62 929.102C1967.09 928.019 1962.63 926.583 1958.17 925.197C1949.13 922.249 1940.17 918.898 1930.87 916.732C1929.16 916.354 1923.32 916.253 1923.6 914.086C1923.87 911.92 1929.44 911.164 1930.82 911.063C1939.06 910.458 1949.33 914.313 1956.99 917.059C1966.75 920.556 1975.99 925.352 1984.47 931.319V931.319Z" fill="black"/>
<path opacity="0.1" d="M1965.98 882.467C1956.74 879.948 1948.35 874.203 1938.83 873.095C1936.35 873.189 1933.91 872.443 1931.91 870.978C1930.79 869.878 1930.01 868.479 1929.67 866.947C1936.04 866.62 1943.44 869.316 1949.23 871.86C1952.42 873.228 1955.49 874.863 1958.4 876.748C1960.52 878.033 1963.69 881.737 1965.98 882.467Z" fill="black"/>
<path d="M2142.16 656.874C2140.6 667.349 2142.86 678.036 2148.53 686.98C2154.2 695.923 2162.9 702.525 2173.04 705.576C2171.81 711.547 2165.64 714.847 2161.28 719.105C2155.13 725.076 2151.96 734.02 2144.71 738.555C2136.62 743.594 2126.22 741.629 2117.01 739.513C2116.17 739.419 2115.39 739.014 2114.84 738.379C2114.65 738.077 2114.51 737.745 2114.44 737.396C2111.39 726.235 2109.4 714.318 2112.52 703.132C2115.04 693.608 2121.09 685.495 2125.92 677.08C2130.76 668.665 2131.21 659.646 2142.16 656.874Z" fill="#23425A"/>
<path d="M1917 512.408C1907.25 513.118 1897.78 516.002 1889.3 520.849C1883.66 524.074 1877.86 528.407 1871.42 527.626C1867.61 527.198 1863.86 525.106 1860.16 526.114C1858.07 526.956 1856.13 528.112 1854.39 529.541C1853.51 530.243 1852.46 530.704 1851.35 530.881C1850.24 531.057 1849.1 530.943 1848.05 530.549L1845.53 565.418C1844.57 578.67 1843.64 592.2 1846.81 605.125C1848.45 611.726 1852.05 617.722 1852.45 624.424C1852.86 631.125 1852.25 638.004 1852.73 644.781C1853.18 651.054 1854.57 657.227 1854.92 663.501C1855.63 675.342 1852.7 687.083 1849.88 698.597C1845.63 715.578 1843.06 732.937 1834.77 748.306C1832.46 752.564 1829.74 756.897 1829.74 761.734C1829.74 762.339 1829.74 762.919 1829.89 763.498C1827.37 764.884 1825.03 766.194 1822.89 767.554C1818.1 770.653 1812.99 774.105 1811.03 779.471C1809.44 783.83 1810.17 788.819 1808.26 793.026C1806.34 797.234 1801.96 800.232 1801 804.767C1800.32 808.067 1801.63 811.544 1801 814.845C1800.43 816.552 1799.97 818.294 1799.62 820.06C1799.37 823.839 1802.56 826.888 1805.74 828.954C1810.36 832.005 1815.47 834.254 1820.85 835.605L1835.88 775.894C1849.59 750.538 1860.99 724.003 1869.96 696.606C1872.52 687.651 1875.81 678.921 1879.8 670.505C1882.65 665.743 1885.18 660.794 1887.36 655.69C1889.65 649.341 1889.88 642.463 1890.98 635.761C1892.3 627.939 1894.28 620.244 1896.9 612.759C1899.62 604.671 1902.77 596.609 1903.32 588.118C1904.15 575.974 1899.75 563.15 1904.43 551.914C1906.42 547.708 1909.01 543.812 1912.11 540.349C1918.61 532.388 1924.53 524.048 1931.03 516.087C1927.65 512.484 1922.03 512.106 1917 512.408Z" fill="#23425A"/>
<g opacity="0.1">
<path opacity="0.1" d="M1987.97 373.057L1984.82 373.284L1984.47 373.536C1985.64 373.488 1986.82 373.328 1987.97 373.057V373.057Z" fill="black"/>
<path opacity="0.1" d="M2045.59 425.361C2045.06 430.37 2043.98 435.305 2042.36 440.075C2041.32 442.97 2040.48 445.933 2039.84 448.943C2039.34 451.866 2039.29 454.839 2038.84 457.761C2038.28 461.551 2036.97 465.191 2034.98 468.466C2033 471.741 2030.38 474.587 2027.28 476.834C2026.39 477.554 2025.29 477.954 2024.15 477.968C2022.19 477.741 2020.98 475.448 2020.25 473.382C2016.25 461.818 2017.2 447.684 2009.83 438.462C2006.47 434.743 2002.41 431.721 1997.89 429.569C1996.04 428.378 1993.97 427.597 1991.79 427.276C1988.6 427.448 1985.53 428.571 1982.98 430.501C1977.66 434.068 1971.77 436.677 1965.55 438.21C1962.45 438.945 1959.23 438.978 1956.11 438.307C1953 437.636 1950.07 436.277 1947.55 434.33C1944.07 431.458 1941.53 427.15 1937.67 424.908C1933.82 422.665 1929.79 422.791 1925.99 421.254C1923.61 420.239 1921.5 418.702 1919.8 416.757C1918.1 414.812 1916.86 412.508 1916.17 410.018C1916.08 409.703 1916.01 409.384 1915.97 409.06C1915.34 411.873 1915.41 414.797 1916.17 417.576C1916.86 420.067 1918.1 422.37 1919.8 424.315C1921.5 426.261 1923.61 427.798 1925.99 428.813C1929.79 430.35 1934.07 430.375 1937.67 432.466C1941.28 434.557 1944.07 439.017 1947.55 441.889C1950.07 443.836 1953 445.194 1956.11 445.866C1959.23 446.537 1962.45 446.504 1965.55 445.769C1971.77 444.235 1977.66 441.626 1982.98 438.059C1985.53 436.129 1988.6 435.006 1991.79 434.834C1993.97 435.155 1996.04 435.937 1997.89 437.127C2002.36 439.321 2006.35 442.368 2009.65 446.096C2017.03 455.318 2016.07 469.452 2020.07 481.016C2020.81 483.107 2022.01 485.375 2023.98 485.602C2025.19 485.608 2026.36 485.178 2027.28 484.392C2030.39 482.139 2033.02 479.283 2035.01 475.994C2037 472.704 2038.31 469.049 2038.86 465.244C2039.31 462.322 2039.37 459.349 2039.87 456.426C2040.51 453.416 2041.35 450.453 2042.39 447.558C2044.84 440.772 2045.98 433.581 2045.74 426.369C2045.69 426.067 2045.64 425.714 2045.59 425.361Z" fill="black"/>
</g>
<path d="M1886.25 627.522L1884.54 650.525C1884.28 653.649 1878.32 728.024 1834.3 814.945C1796.52 889.496 1723.01 986.596 1584.22 1041.17C1573.39 1045.45 1562.15 1049.45 1550.5 1053.16L1537.51 1012.35C1570.13 1002.07 1601.56 988.322 1631.24 971.328C1701.98 930.463 1756.98 872.137 1795.34 797.082C1815.69 757.122 1830.19 714.442 1838.4 670.353H1680.5V627.522H1886.25Z" fill="#FF8AE2"/>
<path opacity="0.1" d="M1567.22 1041.19C1705.98 986.622 1779.52 889.547 1817.27 814.996C1861.29 728.074 1867.29 653.75 1867.51 650.576L1869.22 627.573H1886.85L1885.14 650.576C1884.91 653.7 1878.92 728.074 1834.9 814.996C1797.12 889.547 1723.61 986.622 1584.85 1041.19C1574.02 1045.48 1562.77 1049.48 1551.11 1053.21L1549.39 1047.84C1555.47 1045.68 1561.41 1043.46 1567.22 1041.19Z" fill="white"/>
<path d="M1289.4 1012.35L1276.4 1053.16C1264.74 1049.43 1253.49 1045.43 1242.66 1041.14C1103.9 986.571 1030.36 889.496 992.61 814.945C948.59 728.024 942.596 653.7 942.369 650.525L940.657 627.522H1146.31V670.353H988.38C996.635 714.448 1011.18 757.127 1031.57 797.082C1069.92 872.137 1124.9 930.463 1195.64 971.303C1225.33 988.315 1256.76 1002.08 1289.4 1012.35V1012.35Z" fill="#FF8AE2"/>
<path opacity="0.1" d="M1259.63 1041.19C1120.87 986.622 1047.33 889.547 1009.58 814.996C965.563 728.074 959.57 653.75 959.343 650.576L957.63 627.573H940.002L941.714 650.576C941.941 653.7 947.935 728.074 991.956 814.996C1029.73 889.547 1103.24 986.622 1242 1041.19C1252.83 1045.48 1264.08 1049.48 1275.75 1053.21L1277.46 1047.84C1271.4 1045.68 1265.46 1043.46 1259.63 1041.19Z" fill="white"/>
<path d="M1651.01 1406.89V1637.85H1175.87V1406.89L1190.98 1386.74C1344.95 1332.07 1376.16 1189.49 1382.38 1133.08C1383.3 1125.28 1383.83 1117.45 1383.96 1109.6H1442.72C1442.85 1117.45 1443.38 1125.28 1444.3 1133.08C1450.62 1189.49 1481.83 1332.12 1635.7 1386.74L1651.01 1406.89Z" fill="#FF8AE2"/>
<path opacity="0.1" d="M1651.01 1406.89H1175.87V1435.87H1651.01V1406.89Z" fill="black"/>
<path opacity="0.1" d="M1216.16 1386.74C1370.14 1332.07 1401.34 1189.49 1407.56 1133.08C1408.49 1125.28 1409.01 1117.45 1409.15 1109.6H1383.96C1383.83 1117.45 1383.3 1125.28 1382.38 1133.08C1376.06 1189.49 1344.85 1332.12 1190.98 1386.74L1175.87 1406.89V1637.85H1201.05V1406.89L1216.16 1386.74Z" fill="white"/>
<path opacity="0.1" d="M1103.69 627.522H1146.31V670.353H1107.47C1105.94 656.244 1104.69 641.967 1103.69 627.522Z" fill="black"/>
<path opacity="0.1" d="M1289.4 1012.35L1276.4 1053.16C1264.74 1049.43 1253.49 1045.43 1242.66 1041.14C1224.84 1019.38 1209.1 995.998 1195.64 971.303C1225.33 988.316 1256.76 1002.08 1289.4 1012.35Z" fill="black"/>
<path opacity="0.1" d="M1537.48 1012.35C1570.11 1002.07 1601.53 988.323 1631.21 971.329C1617.74 996.027 1602 1019.42 1584.2 1041.19C1573.37 1045.48 1562.13 1049.47 1550.48 1053.19L1537.48 1012.35Z" fill="black"/>
<path opacity="0.1" d="M1723.16 627.522C1722.17 641.967 1720.91 656.244 1719.38 670.353H1680.58V627.522H1723.16Z" fill="black"/>
<path opacity="0.1" d="M1444.4 1133.08C1423.95 1137.04 1402.93 1137.04 1382.48 1133.08C1383.4 1125.28 1383.93 1117.45 1384.06 1109.6H1442.82C1442.95 1117.45 1443.48 1125.28 1444.4 1133.08V1133.08Z" fill="black"/>
<path d="M1108.73 556.575C1109.81 874.178 1245.81 1131.01 1413.45 1131.01C1581.1 1131.01 1717.07 874.178 1718.17 556.575H1108.73Z" fill="#FF8AE2"/>
<path opacity="0.1" d="M1162.88 556.575H1108.73C1109.81 874.178 1245.81 1131.01 1413.45 1131.01C1422.52 1131 1431.58 1130.23 1440.53 1128.72C1285.55 1102.82 1163.91 856.895 1162.88 556.575Z" fill="white"/>
<path d="M1575.03 1495.3H1251.85V1578.44H1575.03V1495.3Z" fill="#93C2DB"/>
<path opacity="0.1" d="M1266.96 1506.64H1575.03V1495.3H1251.85V1578.44H1266.96V1506.64Z" fill="white"/>
<path d="M936.375 863.218C930.558 861.278 896.308 834.169 893.714 821.899C891.12 809.629 911.821 695.321 911.821 695.321C911.821 695.321 909.907 695.321 906.785 694.944V693.104L911.041 542.944C911.041 542.944 928.493 442.166 895.528 448.036C862.562 453.907 883.238 542.944 883.238 542.944C883.238 542.944 879.486 588.143 876.841 601.698C874.323 614.774 862.789 668.036 870.646 684.588C870.934 685.177 871.253 685.748 871.603 686.302V686.302C871.603 686.302 872.913 743.116 858.684 750.876C845.11 758.258 839.469 795.42 838.99 798.745L838.26 798.443C834.207 795.906 830.649 792.654 827.759 788.844C827.456 788.466 827.23 788.063 826.953 787.66C836.218 777.231 841.212 763.691 840.936 749.741C840.661 735.79 835.137 722.458 825.467 712.403C820.971 707.731 815.696 703.878 809.878 701.015C809.709 696.201 808.57 691.471 806.529 687.108C799.981 673.1 763.717 654.783 737.954 654.355C726.067 654.002 716.321 657.378 712.77 666.675C710.957 671.387 711.511 676.753 710.756 681.641C709.245 691.719 702.773 699.605 694.462 705.878C691.106 702.13 687.478 698.635 683.608 695.422C675.197 688.972 658.424 667.708 658.424 667.708C658.424 667.708 606.068 613.464 602.189 598.599C598.311 583.734 546.005 494.47 534.37 510.015C522.735 525.56 574.437 593.308 574.437 593.308C574.437 593.308 584.259 617.923 591.814 626.238C599.369 634.552 657.291 718.702 657.291 718.702L660.061 724.446C647.822 730.896 636.64 739.11 632.687 751.909C626.894 770.754 639.562 789.7 648.326 807.337C665.4 841.753 667.843 885.642 645.807 917.085C626.063 944.849 591.814 958.051 559.755 969.59C575.238 981.753 594.472 988.141 614.152 987.655C606.748 1009.12 580.506 1016.23 558.143 1020.21C569.879 1031.49 586.676 1035.6 602.794 1038.09C610.688 1039.44 618.686 1040.07 626.693 1039.98H628.657L630.622 1039.83C633.351 1039.65 636.068 1039.31 638.756 1038.8C650.391 1036.43 661.698 1030.08 667.641 1019.8C672.678 1011.01 674.441 999.017 683.583 994.608C685.963 993.533 688.528 992.926 691.138 992.82H690.861C692.573 992.82 694.336 992.82 696.049 992.82L734.151 993.198C735.738 993.198 737.375 993.198 739.012 993.198C749.765 992.946 761.249 991.081 766.714 982.187C768.962 977.868 770.145 973.074 770.164 968.204C770.97 956.136 770.164 943.715 770.491 931.546C773.74 953.692 777.14 988.209 769.056 1000.96C762.488 1010.62 754.528 1019.25 745.433 1026.58C743.146 1028.5 741.054 1030.65 739.188 1032.98C737.954 1033.86 737.224 1034.34 737.224 1034.34L736.443 1036.68C733.573 1041.04 731.493 1045.87 730.298 1050.94C729.859 1052.25 729.696 1053.63 729.82 1055C730.701 1056.79 723.524 1064.17 725.614 1067.27C707.683 1088.31 704.284 1120.18 704.284 1120.18L671.545 1169.91C654.722 1214.13 629.539 1218.66 629.539 1218.66C629.539 1218.66 570.383 1178.96 568.771 1177.02C567.159 1175.08 544.544 1165.38 544.544 1165.38C541.878 1160.7 537.807 1156.98 532.909 1154.75C525.153 1151.52 524.498 1139.63 524.498 1139.63C523.541 1111.54 507.046 1109.4 507.046 1109.4C493.749 1108.26 483.6 1110.63 475.793 1114.96L473.426 1115.14C461.992 1116.07 448.242 1117.1 433.132 1118.11C391.101 1120.88 381.103 1148.12 381.103 1148.12C381.103 1148.12 375.94 1153.94 382.715 1160.24C389.489 1166.54 432.855 1160.24 434.693 1160.09C431.388 1160.44 428.046 1160.21 424.821 1159.41C431.646 1159.15 441.04 1158.9 449.048 1158.9H450.987C450.483 1163.15 450.239 1167.42 450.257 1171.7C450.257 1179.76 472.544 1184.93 472.544 1184.93L540.414 1245.4C540.414 1245.4 583.075 1264.47 610.223 1291.91C637.371 1319.34 661.371 1295.66 661.371 1295.66C690.105 1288.55 772.783 1188.56 772.858 1188.46C772.858 1191.38 774.596 1288.63 777.895 1308.16C778.026 1309.15 778.271 1310.12 778.625 1311.05C782.504 1319.44 777.316 1342.37 775.075 1352.04C773.645 1360.14 773.096 1368.37 773.438 1376.58C773.438 1376.58 742.437 1495 745.005 1505.4C747.574 1515.81 728.208 1564.16 728.208 1564.16V1604.47L731.583 1604.29C731.144 1604.94 730.74 1605.62 730.374 1606.31L730.147 1606.74C730.147 1606.74 750.823 1611.25 764.724 1609.96C778.625 1608.68 802.499 1620.67 802.499 1620.67C802.499 1620.67 810.583 1624.5 835.465 1626.11C860.346 1627.72 860.346 1615.13 860.346 1615.13C857.5 1597.97 818.189 1592.23 816.98 1592.05C813.807 1590.06 810.835 1587.89 808.392 1586.03L807.889 1585.62C808.053 1585.25 808.196 1584.86 808.317 1584.47C812.523 1567.33 789.253 1559.9 789.253 1559.9V1555.72C804.363 1547.96 807.36 1494.7 807.36 1494.7C807.36 1494.7 830.025 1428.84 833.198 1417.85C836.371 1406.87 833.198 1390.42 833.198 1390.42L835.465 1376.21C835.465 1376.21 840.325 1366.53 840.325 1364.59C840.954 1359.67 842.846 1355 845.815 1351.04C849.366 1346.83 841.937 1336.83 841.937 1336.83L848.409 1320.05V1301.63L863.519 1234.81C863.519 1234.81 879.36 1156.99 873.87 1131.52C868.38 1106.04 880.342 1093.09 880.342 1093.09C879.264 1093.66 878.154 1094.17 877.018 1094.61C878.53 1091.11 879.833 1087.52 880.921 1083.87L914.919 1088.08V1088.58H927.183C927.183 1088.58 923.305 1040.71 923.305 1021.42C923.305 1002.12 936.375 932.856 936.375 932.856C936.375 932.856 942.193 865.158 936.375 863.218ZM785.45 807.337C785.45 809.226 785.274 811.192 785.148 813.207L784.468 814.24L783.209 813.182L781.673 815.575L781.219 815.802C777.895 814.089 776.183 804.288 773.79 806.405L773.463 806.682C772.934 806.077 772.405 805.901 771.851 806.405L771.347 806.833C771.347 806.102 771.347 805.346 771.347 804.591C775.955 805.777 780.693 806.378 785.45 806.379C785.475 806.707 785.45 807.034 785.45 807.337ZM898.524 1030.26H899.255L898.046 1033.43C898.197 1032.38 898.348 1031.34 898.524 1030.26V1030.26ZM774.395 1601.6L769.761 1600.44L772.279 1600.01L774.621 1601.55L774.898 1601.75L774.395 1601.6ZM821.74 1594.82C820.203 1594.01 818.642 1593.08 817.131 1592.12C817.635 1592.4 819.624 1593.43 821.74 1594.82V1594.82Z" fill="url(#paint1_linear)"/>
<path d="M915.247 982.666L884.749 1062.18H892.153L863.469 1085.06L915.247 1091.51V982.666Z" fill="#93C2DB"/>
<path opacity="0.1" d="M915.247 982.666L884.749 1062.18L877.068 1060.11L863.469 1085.06L915.247 1091.51V982.666Z" fill="black"/>
<path d="M867.423 1033.53H915.246L932.799 889.043H867.423V1033.53Z" fill="#93C2DB"/>
<path opacity="0.1" d="M867.423 1033.53H915.246L932.799 889.043H867.423V1033.53Z" fill="black"/>
<path d="M774.017 923.257L784.343 921.519L808.065 917.488C808.065 917.488 879.31 901.414 894.017 900.103C902.926 898.927 911.615 896.448 919.805 892.747C923.658 891.084 926.101 889.824 926.101 889.824L900.439 842.937L860.623 813.409C860.623 813.409 835.44 808.042 824.787 793.379C822.41 790.224 820.862 786.522 820.286 782.613C819.709 778.705 820.123 774.714 821.488 771.006C827.986 750.85 782.68 790.28 782.68 790.28C782.68 790.28 783.109 799.728 782.68 811.771C782.68 814.139 782.454 816.608 782.277 819.128C782.277 820.791 782.051 822.453 781.875 824.167C780.766 836.134 778.5 848.454 774.017 855.811C763.062 873.8 774.017 923.257 774.017 923.257Z" fill="#FBBEBE"/>
<path opacity="0.1" d="M782.68 812.779H783.688C785.501 812.779 786.961 808.924 788.724 808.748C802.903 807.387 815.847 804.414 824.837 794.362C822.466 791.208 820.922 787.511 820.346 783.608C819.77 779.704 820.18 775.718 821.538 772.014C828.036 751.858 782.731 791.263 782.731 791.263C782.731 791.263 783.209 800.736 782.68 812.779Z" fill="black"/>
<path d="M727.528 755.637C727.525 762.891 728.951 770.074 731.724 776.775C734.497 783.477 738.563 789.567 743.689 794.696C748.816 799.825 754.903 803.892 761.602 806.667C768.301 809.441 775.48 810.867 782.731 810.864C784.544 810.864 786.332 810.864 788.12 810.612C798.757 809.568 808.862 805.457 817.209 798.779C825.555 792.101 831.785 783.142 835.141 772.991C838.497 762.839 838.835 751.931 836.115 741.591C833.394 731.251 827.732 721.923 819.815 714.74C811.898 707.557 802.067 702.828 791.515 701.126C780.964 699.425 770.145 700.824 760.373 705.154C750.602 709.485 742.296 716.56 736.466 725.522C730.635 734.483 727.531 744.945 727.528 755.637Z" fill="#FBBEBE"/>
<path d="M710.579 671.815C708.766 676.501 709.32 681.741 708.59 686.705C705.895 704.618 687.687 715.351 671.217 722.859C654.747 730.367 636.162 739.261 630.924 756.569C625.182 775.289 637.723 794.059 646.437 811.62C663.41 845.834 665.828 889.471 643.918 920.763C624.451 948.477 590.529 961.628 558.596 973.168C573.965 985.263 593.066 991.624 612.615 991.157C605.287 1012.5 579.222 1019.58 557.01 1023.51C568.67 1034.74 585.367 1038.82 601.358 1041.29C613.018 1043.11 624.98 1044.29 636.615 1041.95C648.25 1039.61 659.28 1033.28 665.274 1023.05C670.311 1014.31 672.023 1002.39 681.114 997.984C685.218 996.368 689.639 995.722 694.034 996.095L731.809 996.498C743.57 996.498 757.496 995.591 763.565 985.538C765.804 981.244 766.979 976.474 766.99 971.631C768.627 946.839 763.868 920.637 774.067 898.012C777.139 891.184 757.421 880.376 759.486 873.145C766.587 848.278 768.375 828.702 768.3 802.827C768.3 782.797 781.32 765.539 792.073 748.633C802.827 731.727 811.817 710.388 803.33 692.247C793.76 672.016 721.887 642.614 710.579 671.815Z" fill="#23425A"/>
<path d="M760.871 1594.34L770.491 1600.72L771.977 1601.7L772.254 1601.87L783.662 1609.43L810.306 1613.92L833.727 1612.31C833.727 1612.31 840.476 1598.2 829.874 1598.52C826.478 1598.35 823.169 1597.39 820.204 1595.73L818.743 1595C817.207 1594.19 815.671 1593.28 814.16 1592.33C811.012 1590.34 808.04 1588.17 805.647 1586.33C802.122 1583.61 799.78 1581.54 799.78 1581.54L760.871 1594.34Z" fill="#FBBEBE"/>
<path opacity="0.1" d="M770.617 1600.72L772.103 1601.7L772.38 1601.87L783.788 1609.43L810.432 1613.92L833.853 1612.31C833.853 1612.31 840.602 1598.2 830 1598.52C826.604 1598.35 823.295 1597.39 820.33 1595.73C822.193 1597.19 823.755 1598.78 823.906 1600.11C824.334 1603.71 806.579 1610.19 806.579 1610.19L781.547 1603.56C781.547 1603.56 777.291 1602.35 771.473 1600.84L770.919 1600.69L770.617 1600.72Z" fill="black"/>
<path d="M727.805 1606.86C727.805 1606.86 748.33 1611.35 762.13 1610.06C775.931 1608.78 799.704 1620.67 799.704 1620.67C799.704 1620.67 807.738 1624.45 832.443 1626.06C857.148 1627.67 857.148 1615.13 857.148 1615.13C854.327 1598.07 815.293 1592.45 814.084 1592.2C814.563 1592.45 816.602 1593.48 818.667 1594.87C821.438 1596.68 824.435 1599.05 824.661 1600.97C825.089 1604.55 807.335 1611.05 807.335 1611.05L782.302 1604.44C782.302 1604.44 778.046 1603.21 772.229 1601.7H771.675C763.049 1599.35 754.285 1597.54 745.434 1596.28C734.655 1595.12 729.14 1604.29 728.007 1606.36C727.924 1606.52 727.857 1606.69 727.805 1606.86V1606.86Z" fill="#23425A"/>
<path d="M404.297 1153.79L415.202 1162.15C415.202 1162.15 418.375 1162 423.109 1161.85H424.62C431.395 1161.6 440.738 1161.35 448.671 1161.35C453.799 1161.12 458.937 1161.4 464.007 1162.2C469.447 1164.12 479.117 1131.06 479.117 1131.06L468.188 1128.54L464.561 1127.69L462.043 1127.08L453.153 1124.99L426.207 1128.06L407.269 1140.26L404.297 1153.79Z" fill="#FBBEBE"/>
<path opacity="0.1" d="M404.297 1153.79L415.202 1162.15C415.202 1162.15 418.375 1162 423.109 1161.85C420.937 1161.01 419.145 1159.41 418.073 1157.34C411.021 1137.76 446.001 1129.4 446.001 1129.4L462.295 1128.69L465.468 1128.54H467.986L464.36 1127.69L461.842 1127.08L452.952 1124.99L426.005 1128.06L407.067 1140.26L404.297 1153.79Z" fill="black"/>
<path d="M382.79 1162.63C389.388 1168.73 432.603 1162.63 434.416 1162.48C431.137 1162.85 427.817 1162.62 424.62 1161.8C423.037 1161.52 421.537 1160.88 420.23 1159.95C418.923 1159.01 417.842 1157.79 417.065 1156.38C410.014 1136.78 444.994 1128.44 444.994 1128.44L461.287 1127.74L464.435 1127.59L504.049 1125.87L505.963 1114.96C505.963 1114.96 493.094 1116.17 472.897 1117.79C461.539 1118.72 447.713 1119.75 432.78 1120.73C391.05 1123.5 381.128 1150.59 381.128 1150.59C381.128 1150.59 376.066 1156.38 382.79 1162.63Z" fill="#23425A"/>
<path d="M867.448 689.728C867.716 690.326 868.036 690.9 868.405 691.441L878.025 705.551L903.058 708.07L903.335 698.143L907.54 548.79C907.54 548.79 924.867 448.616 892.128 454.385C859.389 460.155 879.939 548.79 879.939 548.79C879.939 548.79 876.212 593.737 873.593 607.241C871.049 620.292 859.641 673.352 867.448 689.728Z" fill="#FBBEBE"/>
<path d="M811.264 1060.69L818.391 1072.89L834.332 1100.17C834.332 1100.17 863.243 1110.78 870.647 1102.69C874.701 1098.28 879.083 1082.89 882.155 1069.94C884.674 1059.46 886.361 1050.62 886.361 1050.62L811.264 1060.69Z" fill="#FBBEBE"/>
<path opacity="0.1" d="M811.264 1060.69L818.391 1072.89C818.838 1072.5 819.243 1072.07 819.599 1071.6C827.658 1061.32 863.142 1069.41 882.155 1070.07C884.674 1059.59 886.361 1050.74 886.361 1050.74L811.264 1060.69Z" fill="black"/>
<path opacity="0.1" d="M448.67 1161.3C453.798 1161.07 458.937 1161.35 464.007 1162.15C469.447 1164.07 479.117 1131.01 479.117 1131.01L464.561 1127.59L504.175 1125.87L506.089 1114.96C506.089 1114.96 493.22 1116.17 473.023 1117.79C468.85 1120.19 465.126 1123.3 462.018 1126.98L461.413 1127.74C452.977 1138.09 449.854 1151.44 448.67 1161.3Z" fill="black"/>
<path opacity="0.1" d="M760.871 1594.34L771.977 1601.7C788.548 1598.7 803.683 1593.99 805.471 1586.58C805.479 1586.46 805.479 1586.35 805.471 1586.23C801.945 1583.51 799.603 1581.44 799.603 1581.44L760.871 1594.34Z" fill="black"/>
<path opacity="0.1" d="M728.032 1606.43C742.665 1605.71 757.245 1604.14 771.7 1601.75C763.067 1599.38 754.294 1597.55 745.434 1596.28C734.68 1595.12 729.165 1604.29 728.032 1606.43Z" fill="black"/>
<path d="M449.879 1174.02C449.879 1182.06 472.016 1187.2 472.016 1187.2L539.432 1247.24C539.432 1247.24 581.791 1266.18 608.737 1293.47C635.684 1320.75 659.457 1297.32 659.457 1297.32C688.015 1290.27 770.264 1190.72 770.264 1190.72C770.264 1190.72 772.178 1304.4 776.031 1312.74C779.885 1321.08 774.747 1343.88 772.506 1353.53C771.092 1361.58 770.551 1369.76 770.894 1377.92C770.894 1377.92 740.095 1495.75 742.663 1506.03C745.232 1516.31 725.967 1564.49 725.967 1564.49V1604.62C725.967 1604.62 801.391 1601.72 805.547 1584.72C809.702 1567.71 786.634 1560.3 786.634 1560.3V1556.12C801.744 1548.41 804.59 1495.45 804.59 1495.45C804.59 1495.45 827.079 1429.95 830.277 1419.04C833.475 1408.13 830.277 1391.73 830.277 1391.73L832.518 1377.62C832.518 1377.62 837.328 1367.97 837.328 1366.05C837.957 1361.16 839.84 1356.52 842.793 1352.57C846.319 1348.39 838.94 1338.44 838.94 1338.44L845.362 1321.74V1303.44L860.472 1236.98C860.472 1236.98 876.212 1159.58 870.747 1134.21C865.282 1108.84 877.169 1096.02 877.169 1096.02C851.406 1109.52 838.411 1079.46 834.155 1066.54C833.072 1063.21 832.543 1061 832.543 1061C832.543 1061 797.16 1047.95 764.22 1051.07C757.531 1051.61 750.938 1053.01 744.602 1055.23C708.011 1068.4 702.244 1122.98 702.244 1122.98L669.832 1172.43C653.136 1216.42 628.103 1220.91 628.103 1220.91C628.103 1220.91 569.375 1181.43 567.663 1179.49C565.95 1177.55 543.587 1167.92 543.587 1167.92C540.943 1163.27 536.898 1159.56 532.028 1157.34C524.322 1154.12 523.692 1142.22 523.692 1142.22C522.735 1114.28 506.366 1111.99 506.366 1111.99C449.552 1107.25 449.879 1166.01 449.879 1174.02Z" fill="#23425A"/>
<path d="M776.611 1017.03H811.263V909.476H776.611V1017.03Z" fill="#93C2DB"/>
<path opacity="0.1" d="M776.611 1017.03H811.263V909.476H776.611V1017.03Z" fill="black"/>
<path opacity="0.1" d="M867.423 689.501C867.418 689.577 867.418 689.653 867.423 689.728C867.691 690.326 868.011 690.9 868.38 691.441L878 705.55L903.033 708.07L903.31 698.143C895.503 697.539 877.723 695.397 867.423 689.501Z" fill="black"/>
<path d="M868.405 691.441C868.405 691.441 869.689 747.928 855.561 755.637C841.433 763.347 835.943 803.507 835.943 803.507C835.943 803.507 878.755 831.675 888.3 844.07C897.845 856.466 919.754 885.994 915.246 893.049C910.739 900.103 926.176 932.226 926.176 932.226C926.176 932.226 897.92 990.023 904.342 1011.87C910.764 1033.71 911.393 1091.48 911.393 1091.48H923.607C923.607 1091.48 919.754 1043.96 919.754 1024.69C919.754 1005.42 932.573 936.711 932.573 936.711C932.573 936.711 938.365 869.29 932.573 867.376C926.78 865.461 892.783 838.477 890.214 826.258C887.645 814.038 908.195 700.285 908.195 700.285C908.195 700.285 881.878 699.151 868.405 691.441Z" fill="#93C2DB"/>
<path opacity="0.1" d="M775.956 899.499C777.128 907.359 779.989 914.871 784.342 921.519L808.065 917.487C808.065 917.487 879.309 901.413 894.017 900.103C902.926 898.926 911.615 896.448 919.805 892.746C914.16 872.735 903.142 854.654 887.947 840.467L878.906 832.078C865.584 819.703 850.144 809.829 833.324 802.927C834.382 803.809 909.127 867.652 892.757 880.174C876.388 892.696 832.317 862.21 832.317 862.21L782.202 819.128L780.388 817.566L777.492 822.075C778.966 822.682 780.403 823.372 781.799 824.141C798.879 833.52 811.554 849.281 817.056 867.98C827.356 902.623 775.956 899.499 775.956 899.499Z" fill="black"/>
<path d="M760.544 1060.04C760.544 1060.04 808.04 1086.37 819.574 1071.6C822.093 1068.35 827.406 1066.94 834.03 1066.56C832.947 1063.24 832.418 1061.02 832.418 1061.02C832.418 1061.02 797.035 1047.97 764.095 1051.09C761.929 1056.54 760.544 1060.04 760.544 1060.04Z" fill="#8A3838"/>
<path d="M782.403 817.616L834.332 862.311C834.332 862.311 878.227 892.898 894.772 880.275C911.318 867.653 835.314 803.003 835.314 803.003C852.098 809.926 867.522 819.769 880.871 832.078L889.912 840.468C913.685 862.513 919.049 862.513 919.855 894.913C920.057 902.9 917.337 914.363 915.247 916.429C907.54 923.988 902.151 978.887 903.335 985.311C904.518 991.736 888.98 1047.19 894.017 1062.61C899.054 1078.03 831.058 1054.9 819.549 1069.69C808.04 1084.48 760.544 1058.12 760.544 1058.12C760.544 1058.12 786.861 990.678 793.283 986.193C799.704 981.709 807.411 947.016 793.283 930.967C779.155 914.918 777.895 899.499 777.895 899.499C777.895 899.499 829.27 902.673 818.97 868.03C816.072 857.989 811.045 848.691 804.231 840.769C797.416 832.848 788.975 826.489 779.482 822.126L782.403 817.616Z" fill="#E8E8F0"/>
<path opacity="0.1" d="M851.708 931.294C851.708 931.294 831.788 968.859 806.025 978.61C805.194 978.912 804.388 979.189 803.507 979.441C776.611 987.629 853.723 942.934 851.708 931.294Z" fill="black"/>
<path d="M573.127 598.952C573.127 598.952 582.747 623.365 590.454 631.705C598.16 640.044 655.276 723.539 655.276 723.539L660.111 733.617L664.267 742.208L700.858 738.354L703.377 723.59L701.966 721.876C698.29 717.467 688.267 705.626 681.543 700.461C673.207 694.062 656.51 672.873 656.51 672.873C656.51 672.873 604.531 618.906 600.678 604.142C596.825 589.378 544.821 500.844 533.287 516.162C521.753 531.481 573.127 598.952 573.127 598.952Z" fill="#FBBEBE"/>
<g opacity="0.1">
<path opacity="0.1" d="M679.301 996.095C674.909 995.715 670.488 996.353 666.382 997.959C657.316 1002.37 655.604 1014.29 650.567 1023.03C644.674 1033.26 633.442 1039.58 621.883 1041.92C619.585 1042.37 617.265 1042.69 614.932 1042.88C622.294 1043.6 629.721 1043.28 636.993 1041.92C648.552 1039.58 659.784 1033.26 665.677 1023.03C670.714 1014.29 672.426 1002.37 681.492 997.959C683.873 996.887 686.439 996.288 689.047 996.196L679.301 996.095Z" fill="black"/>
<path opacity="0.1" d="M768.754 802.827C768.754 782.797 781.774 765.539 792.502 748.633C803.23 731.728 812.246 710.388 803.759 692.248C796.506 676.753 752.787 655.967 727.553 660.074C752.258 663.274 782.705 679.55 788.649 692.248C797.136 710.388 788.12 731.728 777.392 748.633C766.663 765.539 753.593 782.797 753.644 802.827C753.644 828.677 751.906 848.177 744.804 873.145C742.764 880.325 762.433 891.184 759.411 897.987C749.186 920.662 753.971 946.814 752.334 971.606C752.3 976.449 751.118 981.216 748.884 985.513C743.847 993.802 733.522 995.944 723.474 996.397H732.263C743.998 996.397 757.925 995.49 763.994 985.437C766.228 981.14 767.41 976.374 767.444 971.53C769.081 946.739 764.296 920.561 774.521 897.911C777.593 891.109 757.874 880.275 759.914 873.069C767.016 848.278 768.804 828.677 768.754 802.827Z" fill="black"/>
</g>
<path opacity="0.1" d="M660.112 733.567L664.267 742.158L700.859 738.303L703.377 723.539L701.967 721.826C698.063 723.741 668.825 737.825 660.112 733.567Z" fill="black"/>
<path opacity="0.1" d="M795.221 830.138C795.221 830.138 786.231 816.029 781.093 819.859C775.956 823.688 773.966 808.294 771.02 810.864C768.073 813.434 759.486 820.589 755.91 810.587C753.114 802.625 722.693 752.261 710.353 732.005C707.18 726.764 705.19 723.54 705.19 723.54C705.19 723.54 670.537 740.873 662.202 735.104V747.298L669.253 747.953L707.028 818.498C707.028 818.498 718.915 837.419 718.109 844.02C717.303 850.621 733.345 879.519 735.914 881.434C738.483 883.349 766.134 915.472 766.134 915.472C766.134 915.472 780.262 984.833 768.048 1004.11C755.834 1023.38 734.68 1037.49 734.68 1037.49C734.68 1037.49 728.309 1056.11 729.24 1058.05C730.172 1059.99 721.836 1068.33 725.689 1070.9C729.543 1073.47 734.68 1091.43 734.68 1091.43C734.68 1091.43 752.661 1062.53 762.382 1058.05C772.103 1053.56 784.543 994.457 784.543 994.457C784.543 994.457 788.094 959.638 788.371 937.165C788.648 914.691 787.515 830.138 795.221 830.138Z" fill="black"/>
<path d="M793.282 830.138C793.282 830.138 784.317 816.029 779.179 819.859C774.042 823.688 772.027 808.294 769.106 810.864C766.185 813.434 757.597 820.589 753.996 810.587C751.175 802.625 720.754 752.261 708.439 732.005L703.276 723.54C703.276 723.54 668.624 740.873 660.263 735.104V747.298L667.339 747.953L705.115 818.498C705.115 818.498 717.026 837.419 716.195 844.02C715.364 850.621 731.306 879.519 734 881.434C736.695 883.349 764.22 915.472 764.22 915.472C764.22 915.472 778.348 984.833 766.16 1004.11C759.721 1013.79 751.888 1022.46 742.915 1029.86C735.378 1036.08 730.073 1044.59 727.805 1054.09C727.368 1055.39 727.213 1056.76 727.352 1058.12C728.284 1060.04 719.948 1068.4 723.801 1070.97C727.654 1073.54 732.842 1091.58 732.842 1091.58C732.842 1091.58 750.823 1062.68 760.544 1058.2C770.265 1053.72 782.73 994.609 782.73 994.609C782.73 994.609 786.256 959.79 786.558 937.316C786.86 914.842 785.727 830.138 793.282 830.138Z" fill="#93C2DB"/>
<path opacity="0.1" d="M705.342 1122.35C705.342 1122.35 732.313 1127.38 743.117 1135.17C753.921 1142.95 702.042 1122.98 702.042 1122.98L705.342 1122.35Z" fill="black"/>
<path opacity="0.1" d="M770.189 1190.72C770.189 1190.72 798.319 1214.18 793.282 1235.37C788.246 1256.56 775.251 1309.87 775.251 1309.87L770.189 1190.72Z" fill="black"/>
<path opacity="0.1" d="M524.171 1145.62C524.171 1145.62 484.532 1149.96 487.101 1155.1C489.669 1160.24 524.171 1150.36 524.171 1150.36V1145.62Z" fill="black"/>
<path opacity="0.1" d="M828.539 1340.68C828.539 1340.68 831.058 1343.88 816.35 1340.68C801.643 1337.48 812.497 1327.61 812.497 1327.61L828.539 1340.68Z" fill="black"/>
<path opacity="0.1" d="M823.503 1385C823.503 1385 803.356 1388.2 792.552 1385C781.748 1381.8 823.503 1385 823.503 1385Z" fill="black"/>
<path opacity="0.1" d="M782.05 1558.39C782.05 1558.39 778.525 1554.53 760.871 1561.59C743.217 1568.64 736.166 1568.97 731.028 1566.63C725.891 1564.28 782.05 1558.39 782.05 1558.39Z" fill="black"/>
<path opacity="0.1" d="M801.643 1140.16L776.611 1175C776.611 1175 790.084 1144.49 801.643 1140.16Z" fill="black"/>
<path opacity="0.1" d="M752.988 819.859C752.988 819.859 751.906 831.423 735.763 835.933C719.62 840.443 716.548 844.096 716.548 844.096" fill="black"/>
<path opacity="0.1" d="M711.033 736.036C711.033 736.036 689.727 751.153 667.49 747.953Z" fill="black"/>
<path opacity="0.1" d="M727.251 1059.71C727.251 1059.71 733.471 1063.62 748.405 1046.53Z" fill="black"/>
<path opacity="0.1" d="M882.357 878.587C882.961 875.463 880.796 872.566 878.756 870.122L874.575 865.083C873.758 864.052 872.839 863.106 871.83 862.261C869.312 860.321 866.088 859.742 863.469 858.003" fill="black"/>
<path d="M2307.29 1639.57C2363.22 1639.57 2408.56 1631.9 2408.56 1622.43C2408.56 1612.97 2363.22 1605.3 2307.29 1605.3C2251.37 1605.3 2206.03 1612.97 2206.03 1622.43C2206.03 1631.9 2251.37 1639.57 2307.29 1639.57Z" fill="#FF8AE2"/>
<path d="M2349.17 1594.42C2353.8 1590.65 2357.16 1585.56 2358.82 1579.83C2360.08 1574.06 2357.61 1567.23 2352.07 1564.99C2345.87 1562.62 2339.25 1566.93 2334.24 1571.26C2329.23 1575.6 2323.46 1580.56 2316.91 1579.63C2320.29 1576.56 2322.81 1572.67 2324.24 1568.34C2325.67 1564.01 2325.96 1559.39 2325.07 1554.91C2324.79 1553.06 2324 1551.32 2322.81 1549.87C2319.36 1546.19 2313.14 1547.76 2309.01 1550.65C2295.91 1559.88 2292.26 1577.69 2292.18 1593.69C2290.87 1587.92 2291.98 1581.89 2291.96 1576.05C2291.93 1570.2 2290.29 1563.45 2285.28 1560.35C2282.19 1558.69 2278.72 1557.87 2275.21 1557.99C2269.34 1557.76 2262.77 1558.36 2258.76 1562.67C2253.73 1568.01 2255.06 1576.98 2259.39 1582.83C2263.73 1588.67 2270.35 1592.43 2276.44 1596.48C2281.32 1599.39 2285.48 1603.36 2288.61 1608.1C2288.98 1608.76 2289.29 1609.46 2289.51 1610.19H2326.43C2334.69 1605.98 2342.34 1600.68 2349.17 1594.42V1594.42Z" fill="#FF8AE2"/>
</g>
<defs>
<linearGradient id="paint0_linear" x1="2036.12" y1="1272.15" x2="2036.12" y2="258.573" gradientUnits="userSpaceOnUse">
<stop stop-color="#808080" stop-opacity="0.25"/>
<stop offset="0.54" stop-color="#808080" stop-opacity="0.12"/>
<stop offset="1" stop-color="#808080" stop-opacity="0.1"/>
</linearGradient>
<linearGradient id="paint1_linear" x1="100360" y1="631339" x2="224746" y2="631339" gradientUnits="userSpaceOnUse">
<stop stop-color="#EC1D1D" stop-opacity="0.25"/>
<stop offset="0.54" stop-color="#808080" stop-opacity="0.12"/>
<stop offset="1" stop-color="#808080" stop-opacity="0.1"/>
</linearGradient>
<clipPath id="clip0">
<rect width="2881" height="1644" fill="white"/>
</clipPath>
</defs>
</svg>
