<svg width="2318" height="1603" viewBox="0 0 2318 1603" fill="none" xmlns="http://www.w3.org/2000/svg">
<path d="M2305.71 1.30688H1.28857V1477.53H2305.71V1.30688Z" fill="#183D5D"/>
<path d="M1036.98 199.539H205.06V1054.6H1036.98V199.539Z" fill="#2C5271"/>
<path d="M2180.06 216.121H1348.14V1254.65H2180.06V216.121Z" fill="#2C5271"/>
<path d="M2168.97 1584.86C2251.28 1584.86 2318 1575.32 2318 1563.56C2318 1551.8 2251.28 1542.27 2168.97 1542.27C2086.67 1542.27 2019.95 1551.8 2019.95 1563.56C2019.95 1575.32 2086.67 1584.86 2168.97 1584.86Z" fill="#183D5D"/>
<path d="M679.036 1585.33C761.341 1585.33 828.062 1575.8 828.062 1564.04C828.062 1552.28 761.341 1542.74 679.036 1542.74C596.731 1542.74 530.01 1552.28 530.01 1564.04C530.01 1575.8 596.731 1585.33 679.036 1585.33Z" fill="#183D5D"/>
<path d="M2304.72 0H0.304565V97.9245H2304.72V0Z" fill="#FF8AE2"/>
<path d="M73.0561 68.2139C83.0773 68.2139 91.2011 60.0881 91.2011 50.0644C91.2011 40.0406 83.0773 31.9148 73.0561 31.9148C63.0349 31.9148 54.9111 40.0406 54.9111 50.0644C54.9111 60.0881 63.0349 68.2139 73.0561 68.2139Z" fill="#183D5D"/>
<path d="M141.93 68.2139C151.951 68.2139 160.075 60.0881 160.075 50.0644C160.075 40.0406 151.951 31.9148 141.93 31.9148C131.909 31.9148 123.785 40.0406 123.785 50.0644C123.785 60.0881 131.909 68.2139 141.93 68.2139Z" fill="#183D5D"/>
<path d="M210.804 68.2139C220.825 68.2139 228.949 60.0881 228.949 50.0644C228.949 40.0406 220.825 31.9148 210.804 31.9148C200.783 31.9148 192.659 40.0406 192.659 50.0644C192.659 60.0881 200.783 68.2139 210.804 68.2139Z" fill="#183D5D"/>
<path d="M1996.65 494.688H1991.61V356.598C1991.61 346.103 1989.54 335.71 1985.52 326.013C1981.51 316.316 1975.62 307.506 1968.2 300.084C1960.78 292.663 1951.97 286.776 1942.28 282.759C1932.59 278.743 1922.2 276.676 1911.7 276.676H1619.21C1608.72 276.676 1598.33 278.743 1588.64 282.759C1578.94 286.776 1570.13 292.663 1562.71 300.084C1555.29 307.506 1549.41 316.316 1545.39 326.013C1541.38 335.71 1539.31 346.103 1539.31 356.598V1114.17C1539.31 1124.67 1541.38 1135.06 1545.39 1144.76C1549.41 1154.45 1555.29 1163.26 1562.71 1170.68C1570.13 1178.11 1578.94 1183.99 1588.64 1188.01C1598.33 1192.03 1608.72 1194.09 1619.21 1194.09H1911.7C1922.2 1194.09 1932.59 1192.03 1942.28 1188.01C1951.97 1183.99 1960.78 1178.11 1968.2 1170.68C1975.62 1163.26 1981.51 1154.45 1985.52 1144.76C1989.54 1135.06 1991.61 1124.67 1991.61 1114.17V592.983H1996.65V494.688Z" fill="#183D5D"/>
<path d="M1911.65 297.469H1873.47C1875.23 301.774 1875.9 306.446 1875.42 311.072C1874.95 315.697 1873.35 320.136 1870.75 323.995C1868.16 327.855 1864.66 331.017 1860.55 333.204C1856.45 335.39 1851.87 336.534 1847.22 336.535H1679.66C1675.01 336.534 1670.43 335.39 1666.33 333.204C1662.23 331.017 1658.73 327.854 1656.13 323.995C1653.54 320.136 1651.94 315.697 1651.46 311.072C1650.99 306.446 1651.66 301.774 1653.41 297.469H1617.75C1609.92 297.469 1602.16 299.013 1594.92 302.012C1587.68 305.011 1581.1 309.408 1575.56 314.95C1570.02 320.492 1565.62 327.072 1562.63 334.313C1559.63 341.555 1558.08 349.316 1558.08 357.154V1113.61C1558.08 1121.45 1559.63 1129.21 1562.63 1136.46C1565.62 1143.7 1570.02 1150.28 1575.56 1155.82C1581.1 1161.36 1587.68 1165.76 1594.92 1168.76C1602.16 1171.76 1609.92 1173.3 1617.75 1173.3H1911.65C1919.49 1173.3 1927.25 1171.76 1934.49 1168.76C1941.73 1165.76 1948.3 1161.36 1953.85 1155.82C1959.39 1150.28 1963.78 1143.7 1966.78 1136.46C1969.78 1129.21 1971.32 1121.45 1971.32 1113.61V357.154C1971.32 341.324 1965.04 326.143 1953.85 314.95C1942.65 303.757 1927.48 297.469 1911.65 297.469V297.469Z" fill="#2C5271"/>
<path d="M910.714 739.666H332.479V766.047H910.714V739.666Z" fill="#183D5D"/>
<path d="M910.714 824.845H332.479V851.226H910.714V824.845Z" fill="#93C2DB"/>
<path d="M910.714 910.024H332.479V936.405H910.714V910.024Z" fill="#183D5D"/>
<path d="M1936.76 797.227H1599.2V823.608H1936.76V797.227Z" fill="#183D5D"/>
<path d="M1936.76 879.129H1599.2V905.511H1936.76V879.129Z" fill="#183D5D"/>
<path d="M1936.76 961.032H1599.2V987.414H1936.76V961.032Z" fill="#183D5D"/>
<path d="M1972.05 1370.69V1314.42H1915.79V1370.69H1972.05Z" fill="#2C5271"/>
<path d="M1881.41 1370.69V1314.42H1825.15V1370.69H1881.41Z" fill="#93C2DB"/>
<path d="M1790.77 1370.69V1314.42H1734.51V1370.69H1790.77Z" fill="#2C5271"/>
<path d="M1700.13 1370.69V1314.42H1643.87V1370.69H1700.13Z" fill="#2C5271"/>
<path d="M1609.49 1370.69V1314.42H1553.22V1370.69H1609.49Z" fill="#2C5271"/>
<path d="M1858.47 455.347H1670.94V642.93H1858.47V455.347Z" fill="#93C2DB"/>
<path d="M547.06 902.873L544.633 907.729L537.35 871.308C537.35 871.308 527.641 832.46 547.06 832.46C566.48 832.46 561.625 871.308 561.625 871.308V898.017L547.06 902.873Z" fill="#A0616A"/>
<path d="M865.553 897.9L867.981 902.756L875.263 866.336C875.263 866.336 884.973 827.487 865.553 827.487C846.134 827.487 850.989 866.336 850.989 866.336V893.044L865.553 897.9Z" fill="#A0616A"/>
<path d="M653.866 1175.93L624.739 1355.6L639.301 1530.42L673.286 1515.85L668.432 1384.74L702.416 1280.33L709.697 1404.16L695.135 1532.85L738.828 1537.7L770.385 1273.05L767.958 1183.21L653.866 1175.93Z" fill="#2C5271"/>
<path d="M653.867 1508.57L636.875 1535.28V1594.95C636.875 1596.67 637.487 1598.34 638.601 1599.65C639.715 1600.95 641.259 1601.82 642.955 1602.1C651.284 1603.46 665.785 1604.44 670.859 1595.98C678.142 1583.84 673.287 1557.13 673.287 1557.13C673.287 1557.13 682.996 1537.7 678.142 1523.14C673.287 1508.57 668.432 1506.14 668.432 1506.14L653.867 1508.57Z" fill="#2C5271"/>
<path d="M726.69 1532.85L731.545 1540.13C731.545 1540.13 738.828 1547.42 733.973 1552.27C730.41 1556.05 727.162 1560.11 724.263 1564.41C724.263 1564.41 697.561 1571.7 697.561 1561.98V1530.42L726.69 1532.85Z" fill="#2C5271"/>
<path d="M717.942 978.31C735.713 978.31 750.119 963.9 750.119 946.124C750.119 928.349 735.713 913.939 717.942 913.939C700.171 913.939 685.765 928.349 685.765 946.124C685.765 963.9 700.171 978.31 717.942 978.31Z" fill="#A0616A"/>
<path d="M696.347 956.188L693.92 1002.32L737.612 1004.75L735.185 958.616L696.347 956.188Z" fill="#A0616A"/>
<path d="M743.682 1005.96L736.792 989.125C736.792 989.125 704.843 976.827 695.134 988.967L690.279 1003.54L651.44 993.823L629.593 1042.38L649.012 1180.78C649.012 1180.78 699.989 1246.34 767.957 1183.21L787.376 1052.1L772.812 1001.11L743.682 1005.96Z" fill="#FF8AE2"/>
<path d="M767.958 1010.82L772.812 1001.11L821.362 971.969L850.99 884.245L873.917 894.073L848.062 998.68L777.666 1064.23L767.958 1010.82Z" fill="#FF8AE2"/>
<path d="M656.293 998.68L651.439 993.825L600.463 962.259L564.051 889.418L534.924 899.129L566.478 988.966L644.159 1052.1L656.293 998.68Z" fill="#FF8AE2"/>
<path d="M741.824 896.837L747.085 894.205L739.193 891.574V888.943C739.193 888.943 699.735 873.156 694.474 899.468C687.685 908.594 684.017 919.666 684.017 931.042C684.017 942.418 687.685 953.49 694.474 962.616V970.51L736.563 975.772L741.824 959.985C741.824 959.985 768.129 912.624 741.824 896.837Z" fill="#2F2E41"/>
<path d="M909.248 297.822H332.796V628.709H909.248V297.822Z" fill="#183D5D"/>
<path d="M2049.1 954.113L2051.77 936.881C2051.77 936.881 2067.34 901.482 2055.03 899.574C2042.73 897.666 2032.46 931.366 2032.46 931.366L2036.97 967.357L2049.1 954.113Z" fill="#FFB8B8"/>
<path d="M2175.09 1051.8L2065.11 1029.7L2052.33 949.571L2019.95 947.071L2021.53 1050.67L2117.09 1100.79L2175.09 1051.8Z" fill="#FF8AE2"/>
<path opacity="0.2" d="M2175.09 1051.8L2065.11 1029.7L2052.33 949.571L2019.95 947.071L2021.53 1050.67L2117.09 1100.79L2175.09 1051.8Z" fill="black"/>
<path d="M1875.87 932.919H2213.44V906.538H1875.87V932.919Z" fill="#93C2DB"/>
<path d="M2027.61 948.206L2027.63 930.768C2027.63 930.768 2037.64 893.414 2025.19 893.398C2012.74 893.383 2007.71 928.252 2007.71 928.252L2017.63 963.14L2027.61 948.206Z" fill="#FFB8B8"/>
<path d="M2170.78 998.148L2185.87 994.469C2191.63 994.476 2197.32 993.203 2202.52 990.741C2207.73 988.279 2212.32 984.691 2215.97 980.235C2219.62 975.779 2222.24 970.567 2223.62 964.977C2225.01 959.387 2225.14 953.558 2224 947.912V947.912C2224.01 941.242 2222.7 934.635 2220.16 928.47C2217.62 922.304 2213.88 916.7 2209.17 911.977C2204.46 907.255 2198.87 903.506 2192.71 900.946C2186.55 898.386 2179.95 897.064 2173.28 897.055V897.055C2166.62 897.047 2160.01 898.352 2153.85 900.897C2147.68 903.442 2142.08 907.176 2137.36 911.887C2132.64 916.598 2128.89 922.192 2126.33 928.352C2123.77 934.511 2122.45 941.114 2122.44 947.785V947.785C2120.49 954.579 2120.35 961.767 2122.05 968.629C2123.75 975.492 2127.22 981.788 2132.11 986.887C2137.01 991.987 2143.16 995.711 2149.94 997.687C2156.73 999.663 2163.91 999.822 2170.78 998.148Z" fill="#2F2E41"/>
<path d="M2082.02 1249.7L2094.31 1384.24L2116.55 1516.29L2153.91 1516.34L2149.09 1386.79L2129.37 1229.83L2082.02 1249.7Z" fill="#2C5271"/>
<path d="M2121.55 1508.82L2096.62 1523.74C2096.62 1523.74 2056.77 1528.67 2064.22 1541.14C2071.68 1553.6 2158.86 1546.24 2158.86 1541.26C2158.87 1536.27 2156.41 1508.87 2151.43 1508.86L2121.55 1508.82Z" fill="#2C5271"/>
<path d="M2192.3 1238.08C2192.3 1238.08 2191.6 1257.31 2174.12 1287.18L2176.5 1379.36L2266.01 1494.06L2233.6 1521.42L2124.18 1396.73L2096.97 1247.23L2131.88 1212.4L2192.3 1238.08Z" fill="#2C5271"/>
<path d="M2258.54 1494.05C2258.54 1494.05 2288.42 1499.07 2283.42 1511.52C2278.43 1523.97 2265.9 1581.25 2233.54 1573.73C2233.54 1573.73 2218.59 1573.72 2223.59 1563.76C2226.59 1557.77 2229.92 1551.95 2233.57 1546.33L2233.61 1513.95L2258.54 1494.05Z" fill="#2C5271"/>
<path d="M2154.61 1000.68C2175.24 1000.68 2191.96 983.949 2191.96 963.312C2191.96 942.675 2175.24 925.945 2154.61 925.945C2133.98 925.945 2117.25 942.675 2117.25 963.312C2117.25 983.949 2133.98 1000.68 2154.61 1000.68Z" fill="#FFB8B8"/>
<path d="M2172.01 988.245L2171.96 1030.59L2132.11 1030.54L2137.14 988.202L2172.01 988.245Z" fill="#FFB8B8"/>
<path d="M2122.17 1015.58L2134.24 1012.62L2171.97 1015.65C2171.97 1015.65 2191.87 1035.6 2189.38 1040.58C2186.88 1045.56 2174.27 1167.61 2174.27 1167.61L2196.58 1254.83L2116.88 1259.71L2077.04 1254.68L2084.7 1097.74C2084.7 1097.74 2067.32 1055.37 2089.75 1042.95C2102.42 1036.3 2113.49 1026.96 2122.17 1015.58V1015.58Z" fill="#FF8AE2"/>
<path d="M2166.98 1025.61L2054.92 1020.48L2030.11 943.229L1997.73 945.676L2015.03 1047.83L2117.1 1082.84L2166.98 1025.61Z" fill="#FF8AE2"/>
<path d="M2226.72 935.782C2240.03 935.782 2250.82 924.988 2250.82 911.674C2250.82 898.359 2240.03 887.565 2226.72 887.565C2213.41 887.565 2202.62 898.359 2202.62 911.674C2202.62 924.988 2213.41 935.782 2226.72 935.782Z" fill="#2F2E41"/>
<path d="M2204.48 898.714C2204.48 895.148 2205.28 891.627 2206.81 888.405C2208.33 885.183 2210.56 882.34 2213.32 880.082C2216.08 877.824 2219.3 876.207 2222.76 875.347C2226.22 874.487 2229.83 874.406 2233.33 875.11C2230.24 873.652 2226.88 872.866 2223.47 872.804C2220.06 872.742 2216.68 873.405 2213.54 874.748C2210.41 876.092 2207.6 878.087 2205.29 880.6C2202.98 883.113 2201.23 886.087 2200.16 889.326C2199.09 892.565 2198.72 895.995 2199.07 899.388C2199.42 902.782 2200.49 906.061 2202.21 909.011C2203.92 911.96 2206.24 914.511 2209.02 916.496C2211.79 918.481 2214.96 919.854 2218.3 920.525C2214.16 918.576 2210.67 915.49 2208.22 911.628C2205.77 907.766 2204.48 903.287 2204.48 898.714V898.714Z" fill="#2F2E41"/>
<path d="M2183.8 912.386L2151.31 906.402L2126.32 922.068C2120.18 925.919 2115.27 931.452 2112.17 938.011C2109.08 944.569 2107.93 951.878 2108.86 959.07L2133.89 952.725L2139.49 938.669L2146.17 949.612L2173.24 996.965L2200.66 982.053L2218.13 954.673L2183.8 912.386Z" fill="#2F2E41"/>
<path d="M334.426 294.981L331.166 300.663L907.618 631.55L910.878 625.869L334.426 294.981Z" fill="#2C5271"/>
<path d="M907.631 295.003L331.154 625.846L334.413 631.528L910.89 300.685L907.631 295.003Z" fill="#2C5271"/>
<path d="M1674.71 452.759L1670.08 457.392L1856.77 644.13L1861.4 639.497L1674.71 452.759Z" fill="#2C5271"/>
<path d="M1856.77 452.759L1670.08 639.497L1674.71 644.13L1861.4 457.392L1856.77 452.759Z" fill="#2C5271"/>
</svg>
