<svg width="2837" height="1510" viewBox="0 0 2837 1510" fill="none" xmlns="http://www.w3.org/2000/svg">
<g clip-path="url(#clip0)">
<g opacity="0.1">
<path d="M3047.28 -2583.06C3044.12 -2576.25 3040.96 -2569.53 3037.82 -2562.9C3032.92 -2552.6 3028.08 -2542.5 3023.3 -2532.6C3021.18 -2528.21 3019.05 -2523.91 3016.98 -2519.6C2993.55 -2471.73 2971.67 -2429.38 2953.09 -2394.56C2936.23 -2363.01 2911.2 -2336.57 2880.61 -2318.02C2850.03 -2299.47 2815.02 -2289.48 2779.25 -2289.11L2366.09 -2284.62H2361.73L2326.31 -2284.23L2296.01 -2283.91L2203.11 -2282.9H2199.35L2152.06 -2282.38H2150.61L1859.1 -2279.22L1598.89 -2276.5L1568.62 -2276.17L1380.63 -2274.12H1380.42L1258.5 -2272.82H1257.19L871.685 -2268.65L756.36 -2267.39C731.749 -2267.12 707.242 -2270.63 683.699 -2277.8C642.73 -2290.18 605.91 -2313.5 577.201 -2345.24C527.671 -2399.82 491.573 -2463.5 467.325 -2532.6C463.82 -2542.57 460.551 -2552.67 457.517 -2562.9C373.578 -2846.69 475.907 -3212.82 660.079 -3457.83C667.798 -3468.08 675.644 -3478.07 683.618 -3487.8L683.808 -3488.02C740.449 -3557.56 803.956 -3615.65 871.603 -3656.96C991.478 -3730.28 1124.29 -3750.94 1254.93 -3689.38C1365.46 -3637.29 1468.66 -3612.79 1568.7 -3606.14C1578.81 -3605.49 1588.92 -3605 1598.97 -3604.7C1828.45 -3597.48 2043.52 -3680.17 2296.07 -3733.55C2306.12 -3735.68 2316.2 -3737.78 2326.36 -3739.77C2506.53 -3775.62 2706.4 -3794.53 2944.07 -3754.78C2968.77 -3750.74 2993.13 -3744.92 3016.98 -3737.34C3027.46 -3733.96 3037.56 -3730.33 3047.28 -3726.44C3160.72 -3680.28 3222.59 -3595 3248.88 -3488.13C3251.37 -3478.21 3253.52 -3468.12 3255.34 -3457.86C3301.96 -3200.8 3165.43 -2836.17 3047.28 -2583.06Z" fill="#2C5271"/>
<path d="M3047.28 -2583.06C3044.12 -2576.25 3040.96 -2569.53 3037.82 -2562.9C3032.92 -2552.6 3028.08 -2542.5 3023.3 -2532.6C3021.18 -2528.21 3019.05 -2523.91 3016.98 -2519.6C2993.55 -2471.73 2971.67 -2429.38 2953.09 -2394.56C2936.23 -2363.01 2911.2 -2336.57 2880.61 -2318.02C2850.03 -2299.47 2815.02 -2289.48 2779.25 -2289.11L2366.09 -2284.62H2361.73L2326.31 -2284.23L2296.01 -2283.91L2203.11 -2282.9H2199.35L2152.06 -2282.38H2150.61L1859.1 -2279.22L1598.89 -2276.5L1568.62 -2276.17L1380.63 -2274.12H1380.42L1258.5 -2272.82H1257.19L871.685 -2268.65L756.36 -2267.39C731.749 -2267.12 707.242 -2270.63 683.699 -2277.8C642.73 -2290.18 605.91 -2313.5 577.201 -2345.24C527.671 -2399.82 491.573 -2463.5 467.325 -2532.6C463.82 -2542.57 460.551 -2552.67 457.517 -2562.9C373.578 -2846.69 475.907 -3212.82 660.079 -3457.83C667.798 -3468.08 675.644 -3478.07 683.618 -3487.8L683.808 -3488.02C740.449 -3557.56 803.956 -3615.65 871.603 -3656.96C991.478 -3730.28 1124.29 -3750.94 1254.93 -3689.38C1365.46 -3637.29 1468.66 -3612.79 1568.7 -3606.14C1578.81 -3605.49 1588.92 -3605 1598.97 -3604.7C1828.45 -3597.48 2043.52 -3680.17 2296.07 -3733.55C2306.12 -3735.68 2316.2 -3737.78 2326.36 -3739.77C2506.53 -3775.62 2706.4 -3794.53 2944.07 -3754.78C2968.77 -3750.74 2993.13 -3744.92 3016.98 -3737.34C3027.46 -3733.96 3037.56 -3730.33 3047.28 -3726.44C3160.72 -3680.28 3222.59 -3595 3248.88 -3488.13C3251.37 -3478.21 3253.52 -3468.12 3255.34 -3457.86C3301.96 -3200.8 3165.43 -2836.17 3047.28 -2583.06Z" fill="url(#paint0_linear)"/>
<path d="M2485.45 1165.05C2482.29 1171.86 2479.14 1178.59 2476 1185.22C2471.09 1195.52 2466.25 1205.62 2461.48 1215.52C2459.35 1219.9 2457.23 1224.21 2455.16 1228.51C2431.73 1276.39 2409.85 1318.73 2391.27 1353.55C2374.41 1385.11 2349.38 1411.54 2318.79 1430.1C2288.2 1448.65 2253.19 1458.63 2217.42 1459L1804.26 1463.5H1799.91L1764.49 1463.88L1734.19 1464.21L1641.29 1465.22H1637.53L1590.23 1465.73H1588.79L1297.28 1468.9L1037.07 1471.62L1006.8 1471.95L818.812 1473.99H818.594L696.676 1475.3H695.368L309.862 1479.47L194.537 1480.72C169.926 1481 145.419 1477.49 121.876 1470.31C80.9065 1457.93 44.0866 1434.62 15.3783 1402.87C-34.1518 1348.3 -70.2505 1284.62 -94.4979 1215.52C-98.0033 1205.54 -101.273 1195.44 -104.306 1185.22C-188.245 901.429 -85.9159 535.298 98.2554 290.285C105.975 280.04 113.821 270.048 121.794 260.312L121.985 260.094C178.626 190.557 242.132 132.464 309.78 91.1565C429.655 17.8323 562.47 -2.82178 693.107 58.7314C803.637 110.83 906.838 135.325 1006.88 141.974C1016.99 142.628 1027.09 143.118 1037.15 143.418C1266.63 150.639 1481.69 67.9412 1734.25 14.5625C1744.3 12.4373 1754.38 10.3391 1764.54 8.3501C1944.71 -27.5083 2144.57 -46.4185 2382.25 -6.66357C2406.94 -2.62915 2431.31 3.19922 2455.16 10.7751C2465.64 14.1538 2475.74 17.7869 2485.45 21.6743C2598.9 67.8323 2660.77 153.118 2687.06 259.985C2689.55 269.903 2691.7 279.994 2693.52 290.258C2740.13 547.315 2603.61 911.946 2485.45 1165.05Z" fill="#2C5271"/>
<path d="M2485.45 1165.05C2482.29 1171.86 2479.14 1178.59 2476 1185.22C2471.09 1195.52 2466.25 1205.62 2461.48 1215.52C2459.35 1219.9 2457.23 1224.21 2455.16 1228.51C2431.73 1276.39 2409.85 1318.73 2391.27 1353.55C2374.41 1385.11 2349.38 1411.54 2318.79 1430.1C2288.2 1448.65 2253.19 1458.63 2217.42 1459L1804.26 1463.5H1799.91L1764.49 1463.88L1734.19 1464.21L1641.29 1465.22H1637.53L1590.23 1465.73H1588.79L1297.28 1468.9L1037.07 1471.62L1006.8 1471.95L818.812 1473.99H818.594L696.676 1475.3H695.368L309.862 1479.47L194.537 1480.72C169.926 1481 145.419 1477.49 121.876 1470.31C80.9065 1457.93 44.0866 1434.62 15.3783 1402.87C-34.1518 1348.3 -70.2505 1284.62 -94.4979 1215.52C-98.0033 1205.54 -101.273 1195.44 -104.306 1185.22C-188.245 901.429 -85.9159 535.298 98.2554 290.285C105.975 280.04 113.821 270.048 121.794 260.312L121.985 260.094C178.626 190.557 242.132 132.464 309.78 91.1565C429.655 17.8323 562.47 -2.82178 693.107 58.7314C803.637 110.83 906.838 135.325 1006.88 141.974C1016.99 142.628 1027.09 143.118 1037.15 143.418C1266.63 150.639 1481.69 67.9412 1734.25 14.5625C1744.3 12.4373 1754.38 10.3391 1764.54 8.3501C1944.71 -27.5083 2144.57 -46.4185 2382.25 -6.66357C2406.94 -2.62915 2431.31 3.19922 2455.16 10.7751C2465.64 14.1538 2475.74 17.7869 2485.45 21.6743C2598.9 67.8323 2660.77 153.118 2687.06 259.985C2689.55 269.903 2691.7 279.994 2693.52 290.258C2740.13 547.315 2603.61 911.946 2485.45 1165.05Z" fill="url(#paint1_linear)"/>
</g>
<g opacity="0.1">
<path opacity="0.1" d="M443.81 120.136V1508.75L328.485 1510C303.874 1510.28 279.367 1506.77 255.824 1499.59V289.073H256.015C312.656 219.455 376.162 161.362 443.81 120.136Z" fill="#2C5271"/>
<path opacity="0.1" d="M2827.68 319.264H232.285C240.004 309.019 247.851 299.028 255.824 289.291V289.073H2821.23C2823.71 298.937 2825.87 309.001 2827.68 319.264Z" fill="#2C5271"/>
<path opacity="0.1" d="M2619.48 50.6808V1214.17H2610.03C2605.12 1224.47 2600.28 1234.57 2595.51 1244.47C2593.38 1248.86 2591.26 1253.16 2589.19 1257.47V39.6726C2599.67 43.0514 2609.77 46.7207 2619.48 50.6808Z" fill="#2C5271"/>
<path opacity="0.1" d="M1898.57 37.2478V1492.97L1868.28 1493.3V43.4603C1878.33 41.335 1888.41 39.2369 1898.57 37.2478Z" fill="#2C5271"/>
<path opacity="0.1" d="M1171.18 172.316V1500.87L1140.91 1501.2V170.872C1151.02 171.526 1161.12 171.907 1171.18 172.316Z" fill="#2C5271"/>
<path opacity="0.1" d="M2610.03 1214.2C2605.12 1224.5 2600.28 1234.6 2595.51 1244.5H39.5316C36.0261 1234.52 32.7568 1224.42 29.7236 1214.2H2610.03Z" fill="#2C5271"/>
</g>
<path d="M628.253 724.333H576.489V881.444H628.253V724.333Z" fill="#3F3D56"/>
<path d="M2021.33 716.158H1969.57V882.371H2021.33V716.158Z" fill="#3F3D56"/>
<path d="M2351.45 1454.09V1489.51L1937.56 1493.32L1933.14 1493.41L1775.84 1494.85L1772.08 1494.9L1724.26 1495.31H1722.85L1431.39 1498.01L952.95 1502.45H952.542L830.896 1503.6L829.588 1503.62L289.062 1508.58V1467.71L416.157 1391.42L671.163 1389.29L676.612 1389.26L678.41 1389.24L683.859 1389.16L806.295 1388.15L811.771 1388.12L813.514 1388.09L818.963 1388.07L858.222 1387.74L859.257 1387.71L956.111 1386.89H956.901L1712.66 1380.52L1731.16 1380.38H1733.01L1747.12 1380.25L1849.7 1379.4L1855.14 1379.32L1860.18 1379.26H1862.8L1894.7 1379.02L1901.02 1378.94L1909.5 1378.88L1936.06 1378.64L1978.21 1378.28L1983.66 1378.23L1993.14 1378.17H1994.91L2198.45 1376.43L2351.45 1454.09Z" fill="#183D5D"/>
<path opacity="0.2" d="M2351.45 1454.09V1489.51L1937.56 1493.32L1933.14 1493.41L1775.84 1494.85L1772.08 1494.9L1724.26 1495.31H1722.85L1431.39 1498.01L952.95 1502.45H952.542L830.896 1503.6L829.588 1503.62L289.062 1508.58V1467.71L416.157 1391.42L671.163 1389.29L676.612 1389.26L678.41 1389.24L683.859 1389.16L806.295 1388.15L811.771 1388.12L813.514 1388.09L818.963 1388.07L858.222 1387.74L859.257 1387.71L956.111 1386.89H956.901L1712.66 1380.52L1731.16 1380.38H1733.01L1747.12 1380.25L1849.7 1379.4L1855.14 1379.32L1860.18 1379.26H1862.8L1894.7 1379.02L1901.02 1378.94L1909.5 1378.88L1936.06 1378.64L1978.21 1378.28L1983.66 1378.23L1993.14 1378.17H1994.91L2198.45 1376.43L2351.45 1454.09Z" fill="black"/>
<path d="M806.703 1317.87V1384.6C806.705 1387.77 805.809 1390.86 804.122 1393.53C802.434 1396.21 800.022 1398.34 797.168 1399.7C795.042 1400.73 792.718 1401.29 790.357 1401.34L695.274 1403.35C692.735 1403.41 690.216 1402.88 687.918 1401.8C685.013 1400.47 682.552 1398.33 680.828 1395.64C679.103 1392.95 678.188 1389.82 678.192 1386.62V1317.87H806.703Z" fill="#3F3D56"/>
<path opacity="0.1" d="M806.703 1317.87V1384.6C806.705 1387.77 805.809 1390.86 804.122 1393.53C802.434 1396.21 800.022 1398.34 797.168 1399.7C795.042 1400.73 792.718 1401.29 790.357 1401.34L695.274 1403.35C692.735 1403.41 690.216 1402.88 687.918 1401.8C685.013 1400.47 682.552 1398.33 680.828 1395.64C679.103 1392.95 678.188 1389.82 678.192 1386.62V1317.87H806.703Z" fill="black"/>
<path d="M812.152 1317.87V1384.6C812.153 1387.77 811.258 1390.86 809.57 1393.53C807.882 1396.21 805.471 1398.34 802.616 1399.7C800.491 1400.73 798.167 1401.29 795.805 1401.34L700.723 1403.35C698.184 1403.41 695.665 1402.88 693.367 1401.8C690.462 1400.47 688.001 1398.33 686.277 1395.64C684.552 1392.95 683.637 1389.82 683.641 1386.62V1317.87H812.152Z" fill="#3F3D56"/>
<path d="M1983.66 1317.87H1855.14V1403.71H1983.66V1317.87Z" fill="#3F3D56"/>
<path opacity="0.1" d="M1983.66 1317.87H1855.14V1403.71H1983.66V1317.87Z" fill="black"/>
<path d="M1978.21 1317.87H1849.7V1403.71H1978.21V1317.87Z" fill="#3F3D56"/>
<path opacity="0.1" d="M628.253 724.305V739.918L576.489 738.583V724.305H628.253Z" fill="black"/>
<path d="M968.969 284.469L906.77 731.335C906.376 734.189 904.944 736.798 902.747 738.663C900.551 740.528 897.745 741.518 894.865 741.444L396.839 728.528L387.386 728.283C385.74 728.244 384.12 727.859 382.633 727.152C381.146 726.445 379.825 725.432 378.756 724.18C377.686 722.928 376.893 721.464 376.427 719.885C375.961 718.305 375.833 716.646 376.052 715.013L445.879 247.221C446.329 244.323 447.849 241.699 450.139 239.868C452.429 238.037 455.323 237.131 458.248 237.33L958.071 271.172C959.684 271.265 961.26 271.692 962.699 272.425C964.139 273.158 965.41 274.182 966.434 275.431C967.458 276.681 968.212 278.129 968.648 279.684C969.085 281.24 969.194 282.869 968.969 284.469Z" fill="#183D5D"/>
<path d="M479.309 270.191L426.646 682.534L884.349 697.057L940.636 299.237L479.309 270.191Z" fill="#2C5271"/>
<path d="M1590.9 263.815H1062.34C1054.32 263.815 1047.81 270.317 1047.81 278.338V721.581C1047.81 729.602 1054.32 736.104 1062.34 736.104H1590.9C1598.92 736.104 1605.42 729.602 1605.42 721.581V278.338C1605.42 270.317 1598.92 263.815 1590.9 263.815Z" fill="#183D5D"/>
<path d="M1580.88 295.613H1074.13V688.883H1580.88V295.613Z" fill="#FF8AE2"/>
<path opacity="0.1" d="M2021.33 716.131V726.458L1969.57 727.521V716.131H2021.33Z" fill="black"/>
<path d="M2254.9 707.412C2254.97 708.541 2254.82 709.673 2254.44 710.74C2254.07 711.808 2253.48 712.788 2252.72 713.623C2251.95 714.458 2251.03 715.13 2250 715.598C2248.97 716.067 2247.86 716.322 2246.73 716.349L1736.71 726.894C1734.59 726.938 1732.54 726.178 1730.96 724.768C1729.37 723.358 1728.38 721.402 1728.19 719.292L1684.35 263.488C1684.24 262.357 1684.36 261.216 1684.71 260.134C1685.06 259.052 1685.62 258.051 1686.36 257.193C1687.1 256.334 1688.02 255.635 1689.04 255.139C1690.06 254.643 1691.17 254.359 1692.3 254.305L2198.45 229.128L2203.9 228.856C2206.06 228.742 2208.19 229.474 2209.83 230.897C2211.46 232.32 2212.48 234.324 2212.67 236.485L2254.9 707.412Z" fill="#183D5D"/>
<path d="M1713.47 281.09L2175.73 258.365L2214.77 672.534L1756.17 683.433L1713.47 281.09Z" fill="#2C5271"/>
<path opacity="0.1" d="M2254.9 707.412C2254.97 708.541 2254.82 709.673 2254.44 710.74C2254.07 711.808 2253.48 712.788 2252.72 713.623C2251.95 714.458 2251.03 715.13 2250 715.598C2248.97 716.067 2247.86 716.322 2246.73 716.349L2198.45 229.128L2203.9 228.856C2206.06 228.742 2208.19 229.474 2209.83 230.897C2211.46 232.32 2212.48 234.324 2212.67 236.485L2254.9 707.412Z" fill="black"/>
<path opacity="0.1" d="M458.33 237.302L396.839 728.529L387.386 728.283C385.74 728.244 384.12 727.859 382.633 727.152C381.146 726.445 379.825 725.432 378.756 724.18C377.686 722.928 376.893 721.464 376.427 719.885C375.961 718.306 375.833 716.646 376.052 715.014L445.879 247.221C446.324 244.303 447.853 241.661 450.162 239.822C452.47 237.983 455.387 237.083 458.33 237.302Z" fill="black"/>
<path opacity="0.1" d="M628.253 834.905H576.489V881.444H628.253V834.905Z" fill="black"/>
<path opacity="0.1" d="M812.152 1317.85V1331.39L683.641 1334.82V1317.85H812.152Z" fill="black"/>
<path d="M1038.96 851.117V1309.43C1038.93 1312.23 1037.82 1314.9 1035.87 1316.91C1033.91 1318.91 1031.27 1320.09 1028.47 1320.19L506.335 1334.09H506.199C503.355 1334.05 500.639 1332.91 498.628 1330.9C496.617 1328.88 495.472 1326.17 495.437 1323.32V851.117C495.472 848.273 496.617 845.556 498.628 843.546C500.639 841.535 503.355 840.389 506.199 840.354H1028.2C1031.04 840.389 1033.76 841.535 1035.77 843.546C1037.78 845.556 1038.92 848.273 1038.96 851.117Z" fill="#183D5D"/>
<path opacity="0.1" d="M506.335 840.354V1334.09H506.199C503.355 1334.05 500.639 1332.91 498.628 1330.9C496.617 1328.88 495.472 1326.17 495.437 1323.32V851.117C495.472 848.273 496.617 845.556 498.628 843.546C500.639 841.535 503.355 840.389 506.199 840.354H506.335Z" fill="black"/>
<path d="M530.174 869.618H1013.76V1273.57L530.174 1284.47V869.618Z" fill="#93C2DB"/>
<path opacity="0.1" d="M2021.33 834.905H1969.57V882.37H2021.33V834.905Z" fill="black"/>
<path opacity="0.1" d="M1978.21 1317.85V1335.31L1849.7 1331.88V1317.85H1978.21Z" fill="black"/>
<path d="M2147.8 851.117V1323.32C2147.77 1326.19 2146.6 1328.93 2144.56 1330.94C2142.52 1332.96 2139.77 1334.09 2136.9 1334.09L1614.66 1320.19C1611.86 1320.09 1609.22 1318.91 1607.26 1316.91C1605.31 1314.9 1604.2 1312.23 1604.17 1309.43V851.117C1604.21 848.273 1605.35 845.556 1607.36 843.546C1609.37 841.535 1612.09 840.389 1614.93 840.354H2136.93C2139.79 840.361 2142.54 841.494 2144.57 843.508C2146.61 845.522 2147.77 848.255 2147.8 851.117Z" fill="#183D5D"/>
<path opacity="0.1" d="M2147.8 851.117V1323.32C2147.77 1326.19 2146.6 1328.93 2144.56 1330.94C2142.52 1332.96 2139.77 1334.09 2136.9 1334.09V840.354C2139.77 840.354 2142.52 841.483 2144.56 843.498C2146.6 845.513 2147.77 848.25 2147.8 851.117Z" fill="black"/>
<path d="M2113.07 869.618H1629.48V1273.57L2113.07 1284.47V869.618Z" fill="#93C2DB"/>
<path d="M1590.66 851.117V1309.43C1590.62 1312.23 1589.52 1314.9 1587.56 1316.91C1585.61 1318.91 1582.96 1320.09 1580.17 1320.19L1058.03 1334.09C1055.16 1334.09 1052.41 1332.96 1050.37 1330.94C1048.33 1328.93 1047.17 1326.19 1047.13 1323.32V851.117C1047.17 848.273 1048.31 845.556 1050.32 843.546C1052.34 841.535 1055.05 840.389 1057.9 840.354H1579.9C1582.74 840.389 1585.46 841.535 1587.47 843.546C1589.48 845.556 1590.62 848.273 1590.66 851.117Z" fill="#183D5D"/>
<path d="M1081.87 869.618H1565.46V1273.57L1081.87 1284.47V869.618Z" fill="#93C2DB"/>
<path opacity="0.1" d="M2351.45 1454.09V1489.51L1937.56 1493.32L1933.14 1493.41L1775.84 1494.85L1772.08 1494.9L1724.26 1495.31H1722.85L1431.39 1498.01L952.95 1502.45H952.542L830.896 1503.6L829.588 1503.62L289.062 1508.58V1467.71L840.786 1464.09H842.093L953.768 1463.32H954.285L1725.52 1458.23H1726.31L1726.77 1458.2H1728.05L1741.1 1458.12H1745.08L1948.02 1456.76L1960.01 1456.7L1962.68 1456.68L2351.45 1454.09Z" fill="black"/>
<path d="M1327.51 881.444C1404.74 881.444 1467.35 818.825 1467.35 741.581C1467.35 664.336 1404.74 601.717 1327.51 601.717C1250.27 601.717 1187.66 664.336 1187.66 741.581C1187.66 818.825 1250.27 881.444 1327.51 881.444Z" fill="#FBBEBE"/>
<path d="M1467.38 1027.68C1467.38 1027.68 1196.3 1060.38 1222.18 1027.68C1231.55 1015.86 1234.14 980.817 1233.62 940.899C1233.46 928.774 1233.02 916.212 1232.39 903.706C1229.4 843.76 1222.18 785.177 1222.18 785.177C1222.18 785.177 1459.2 673.46 1431.96 762.016C1421.06 797.793 1424.63 848.038 1432.91 895.204C1435.34 908.964 1438.14 922.452 1441.09 935.259C1448.27 966.496 1457.04 997.344 1467.38 1027.68Z" fill="#FBBEBE"/>
<path opacity="0.1" d="M1467.38 1027.68C1467.38 1027.68 1196.3 1060.38 1222.18 1027.68C1231.55 1015.86 1234.14 980.817 1233.62 940.899C1274.95 923.243 1327.53 936.403 1327.53 936.403C1382.89 925.368 1418.39 927.521 1441.09 935.259C1448.27 966.496 1457.04 997.345 1467.38 1027.68Z" fill="black"/>
<path d="M952.841 1505.53V1503.24L1431.31 1498.04L1722.82 1495.31H1723.64L1723.34 1499.35L1723.74 1495.31H1724.26V1494.85L1728 1458.2L1729.41 1444.33L1729.85 1440L1730.23 1436.38L1747.07 1380.22L1763.9 1324.14L1778.07 1276.92L1799.7 1204.77C1799.7 1204.77 1787.44 1176.16 1780.63 1167.98C1773.82 1159.81 1767.01 1103.95 1767.01 1103.95C1767.01 1103.95 1708.87 1048.56 1683.45 1042.18C1672.8 1039.46 1651.77 1035.83 1629.43 1031.28C1621.06 1029.59 1612.48 1027.79 1604.22 1025.83C1599.57 1024.77 1594.99 1023.65 1590.6 1022.53C1582.07 1020.4 1573.65 1017.8 1565.4 1014.74C1561.08 1013.17 1556.96 1011.07 1553.14 1008.5C1533.12 993.815 1482.93 992.153 1481 992.153C1480.99 992.089 1480.99 992.026 1481 991.962V991.717C1481.07 990.573 1481.07 989.427 1481 988.284C1481 987.194 1481 985.913 1480.75 984.469C1480.75 984.033 1480.75 983.57 1480.56 983.107C1480.43 982.126 1480.26 981.09 1480.02 980C1479.94 979.513 1479.83 979.031 1479.69 978.556C1478.9 975.273 1477.76 972.084 1476.29 969.046C1476.09 968.611 1475.85 968.147 1475.63 967.711C1474.3 965.194 1472.75 962.797 1471 960.545C1470.65 960.082 1470.26 959.591 1469.86 959.128C1467.62 956.496 1465.14 954.087 1462.45 951.935C1461.71 951.363 1460.95 950.763 1460.16 950.218C1459.72 949.861 1459.25 949.533 1458.77 949.237L1456.34 947.657L1454.08 946.349C1452.09 945.259 1449.99 944.196 1447.71 943.188C1447 942.861 1446.23 942.561 1445.47 942.262C1444.71 941.962 1443.51 941.499 1442.5 941.117H1442.34L1440.3 940.3C1438.74 939.782 1437.16 939.319 1435.5 938.856L1432.97 938.202L1430.24 937.575L1427.52 937.003C1424.79 936.458 1421.88 935.968 1418.83 935.586L1415.72 935.205L1412.53 934.878L1409.24 934.605L1404.55 934.333L1399.1 934.142C1375.07 934.14 1351.11 936.688 1327.61 941.744C1311.29 938.112 1294.58 936.573 1277.87 937.166H1275.5L1272.77 937.33H1271.03L1267.51 937.657C1266.34 937.657 1265.14 937.902 1263.97 938.066C1262.8 938.229 1261.57 938.365 1260.4 938.556L1258.6 938.856C1256.83 939.155 1255.03 939.483 1253.15 939.864C1252.56 939.973 1251.96 940.109 1251.36 940.273C1248.99 940.79 1246.62 941.417 1244.27 942.125C1243.1 942.452 1241.93 942.834 1240.76 943.243C1240.16 943.406 1239.59 943.624 1239.02 943.842L1237.27 944.469L1235.55 945.15L1233.51 945.968C1232.48 946.404 1231.47 946.867 1230.46 947.357C1229.89 947.602 1229.32 947.875 1228.77 948.175C1228.23 948.474 1227.65 948.72 1227.14 949.019C1220.98 952.203 1215.28 956.219 1210.22 960.954L1208.83 962.289L1207.47 963.679C1207 964.142 1206.57 964.632 1206.13 965.123C1204.36 967.064 1202.7 969.111 1201.17 971.254C1200.74 971.826 1200.33 972.398 1199.92 972.997C1198.19 975.548 1196.63 978.205 1195.23 980.954C1194.88 981.608 1194.55 982.289 1194.23 982.943C1192 987.546 1190.18 992.332 1188.78 997.248C1188.27 999.065 1187.8 1000.88 1187.39 1002.7C1187.39 1002.7 1129.71 1028.15 1081.87 1046.57C1069.15 1051.47 1057.16 1055.91 1047.13 1059.26C1044.22 1060.25 1041.49 1061.14 1038.96 1061.99C1033.46 1063.98 1027.75 1065.29 1021.93 1065.91C1019.19 1065.96 1016.46 1066.21 1013.76 1066.68C991.773 1070.25 954.094 1085.75 949.981 1101.31C949.647 1102.55 949.554 1103.85 949.708 1105.12C949.708 1105.12 949.708 1105.31 949.708 1105.42C952.433 1124.5 933.362 1121.77 933.362 1121.77C933.362 1121.77 926.551 1172.18 917.015 1185.8C910.122 1195.61 905.409 1217.49 904.81 1234.01C904.467 1239.15 904.871 1244.32 906.008 1249.35C906.008 1249.48 906.008 1249.62 906.008 1249.73C907.098 1253.38 904.483 1263.35 900.042 1276.13C895.22 1290.16 888.191 1307.6 881.434 1324.06C871.245 1348.91 861.655 1371.47 861.055 1376.43C860.81 1378.64 860.102 1382.59 859.121 1387.68C855.143 1408.45 846.316 1447.98 841.957 1463.98C838.715 1475.91 834.002 1492.26 830.76 1503.49C830.76 1503.81 830.569 1504.14 830.487 1504.44L952.623 1503.24V1505.53H953.005H952.841Z" fill="#2C5271"/>
<path opacity="0.1" d="M997.413 1184.36C997.413 1184.36 1152.71 1264.74 1208.56 1255.2L997.413 1184.36Z" fill="black"/>
<path opacity="0.1" d="M1313.45 1151.66C1313.45 1151.66 1464.65 1200.71 1515.05 1207.52C1565.46 1214.33 1313.45 1151.66 1313.45 1151.66Z" fill="black"/>
<path opacity="0.1" d="M1481.16 993.842C1402.15 1008.39 1253.4 1005.26 1189.1 1003.05C1212.67 918.583 1327.59 947.303 1327.59 947.303C1469.83 918.91 1480.73 977.82 1481.16 993.842Z" fill="black"/>
<path d="M1481.16 988.392C1402.15 1002.94 1253.4 999.809 1189.1 997.602C1212.67 913.134 1327.59 941.853 1327.59 941.853C1469.83 913.461 1480.73 972.371 1481.16 988.392Z" fill="#2C5271"/>
<path d="M1900.56 1360.79C1900.56 1360.79 1993.63 1346.48 1995.45 1387.36C1997.28 1428.23 1947.99 1456.78 1947.99 1456.78L1900.56 1360.79Z" fill="#FBBEBE"/>
<path opacity="0.1" d="M1432.91 895.204C1428.91 896.994 1424.82 898.576 1420.65 899.945C1391.28 910.082 1361.67 920.3 1330.75 924.005C1299.82 927.711 1267.38 924.441 1240.4 909.019C1237.57 907.419 1234.84 905.645 1232.23 903.706C1229.23 843.76 1222.01 785.177 1222.01 785.177C1222.01 785.177 1459.04 673.46 1431.8 762.016C1420.95 797.793 1424.63 848.038 1432.91 895.204Z" fill="black"/>
<path d="M1289.14 522.97C1285.26 523.997 1281.18 524.101 1277.25 523.273C1273.31 522.445 1269.62 520.708 1266.48 518.202L1272.14 526.076C1268.8 526.462 1265.42 526.113 1262.23 525.054C1259.04 523.995 1256.12 522.251 1253.67 519.945C1253.16 526.995 1253.45 534.08 1254.54 541.063C1245.17 541.515 1235.94 538.618 1228.5 532.888C1228.35 535.346 1228.96 537.79 1230.25 539.89C1231.54 541.99 1233.44 543.645 1235.69 544.632C1226.27 543.507 1216.77 545.847 1208.94 551.217C1201.12 556.587 1195.52 564.619 1193.19 573.815L1207.41 575.123C1196.23 577.51 1186.2 583.631 1178.97 592.48C1174.61 597.929 1171.29 604.905 1173.19 611.553C1175.1 618.202 1184.31 622.452 1189.32 617.711C1182.19 626.223 1177.01 636.193 1174.14 646.92C1171.27 657.647 1170.78 668.873 1172.7 679.809C1174 684.469 1174.42 689.328 1173.96 694.142C1173.06 698.638 1170.22 702.534 1168.81 706.921C1166.08 714.877 1168.67 723.515 1171.09 731.444L1183.87 773.46C1188.5 788.637 1193.11 803.842 1199.16 818.529C1203.44 827.814 1207.08 837.382 1210.05 847.166C1213.49 860.354 1213.62 874.796 1220.95 886.321C1225.97 893.575 1232.69 899.495 1240.51 903.569C1267.46 918.992 1300.01 922.261 1330.86 918.556C1361.7 914.85 1391.28 904.632 1420.63 894.496C1427.14 892.532 1433.4 889.787 1439.26 886.321C1459.56 873.024 1464.08 845.831 1467.87 821.88C1472.09 795.177 1477.73 768.529 1487.73 743.406C1493.67 728.447 1501.35 713.27 1500.04 697.248C1498.38 675.967 1481.54 658.719 1477.37 637.793C1475.98 630.798 1476.04 623.59 1477.57 616.621C1478.86 612.469 1479.58 608.161 1479.72 603.815C1479.25 595.041 1472.06 588.283 1465.31 582.643C1450.65 570.4 1435.52 558.828 1419.92 547.929C1419.13 542.479 1426.54 540.136 1429.89 535.831C1434.63 529.755 1429.72 520.109 1422.53 517.275C1415.34 514.441 1407.28 516.294 1399.78 518.174C1400.27 514.339 1399.51 510.448 1397.61 507.081C1395.71 503.714 1392.77 501.05 1389.24 499.486C1385.7 497.922 1381.76 497.54 1377.99 498.399C1374.22 499.257 1370.83 501.31 1368.32 504.251C1366.33 499.688 1363.15 495.743 1359.11 492.829C1355.08 489.914 1350.33 488.138 1345.38 487.684C1327.31 486.267 1326.96 500.082 1315.41 507.684C1303.86 515.286 1294.32 505.259 1285.44 497.956C1283.81 502.084 1283.29 506.569 1283.94 510.96C1284.59 515.35 1286.39 519.493 1289.14 522.97Z" fill="#3F3D56"/>
<path d="M1969.57 1442.53C1969.57 1442.53 1967.14 1448.31 1962.68 1456.68C1955.92 1469.55 1947.69 1481.59 1938.16 1492.56L1937.42 1493.35H1933.01L1775.7 1494.8H1771.94L1771.48 1494.25L1740.96 1458.04L1729.47 1444.39L1729 1443.81L1728.02 1442.67L1727.48 1442.02L1726.77 1441.17L1704.4 1414.63L1712.57 1380.57L1726.5 1323.19L1726.85 1321.8L1729.58 1310.9L1731.51 1302.72L1737.99 1276.08L1760.22 1184.39L1799.73 1204.82L1841.39 1278.39L1863.75 1317.9H1876.01C1878.33 1317.9 1883.64 1322.37 1888.98 1327.52C1890.89 1329.35 1892.8 1331.28 1894.43 1332.97C1899.28 1337.98 1903.12 1342.29 1903.12 1342.29C1903.12 1342.29 1922.98 1342.72 1928.32 1358.36C1928.6 1359.12 1928.83 1359.9 1929 1360.68C1930.78 1366.83 1933.08 1372.81 1935.9 1378.56C1939.41 1386.21 1943.82 1394.9 1948.29 1403.6C1956.6 1419.54 1965.05 1434.71 1968.15 1440.22L1968.53 1440.9L1969.57 1442.53Z" fill="#2C5271"/>
<path opacity="0.1" d="M1735.54 1319.51L1735.27 1323.41V1323.68L1734.81 1329.95L1731.18 1380.38L1726.8 1441.14L1725.54 1458.26L1722.82 1494.88V1495.34L1431.3 1498.07L952.922 1503.24V1505.53H952.541V1503.24V1502.48L953.767 1463.35L956.11 1386.89L958.126 1322.07L958.317 1315.61C958.436 1311.72 959.348 1307.88 960.998 1304.35C962.648 1300.82 965.001 1297.66 967.912 1295.06C970.824 1292.47 974.234 1290.5 977.934 1289.27C981.633 1288.03 985.545 1287.57 989.43 1287.9C1002.29 1288.99 1018.99 1290.33 1038.96 1291.74L1047.13 1292.34C1162.46 1300.35 1375.59 1310.71 1590.66 1297.79C1595.18 1297.55 1599.73 1297.28 1604.28 1296.95C1637.63 1294.85 1670.95 1292.15 1703.94 1288.77C1708.11 1288.34 1712.32 1288.82 1716.29 1290.19C1720.25 1291.56 1723.87 1293.78 1726.88 1296.7C1729.89 1299.61 1732.23 1303.15 1733.73 1307.07C1735.22 1310.99 1735.84 1315.19 1735.54 1319.37V1319.51Z" fill="black"/>
<path d="M952.841 1505.53V1503.24L1431.31 1498.04L1722.82 1495.31H1723.64V1494.85L1726.36 1458.23L1727.53 1441.88L1732 1380.27L1735.51 1331.5V1330.3C1735.68 1328.05 1735.58 1325.79 1735.22 1323.57C1735.23 1323.48 1735.23 1323.39 1735.22 1323.3C1734.47 1318.7 1732.59 1314.36 1729.77 1310.65C1726.77 1306.81 1722.84 1303.79 1718.35 1301.88C1713.86 1299.97 1708.95 1299.24 1704.1 1299.75C1671.11 1303.13 1637.79 1305.83 1604.44 1307.93C1599.89 1308.26 1595.34 1308.53 1590.82 1308.77C1375.75 1321.55 1162.62 1311.2 1047.3 1303.32L1039.12 1302.72C1019.15 1301.31 1002.45 1300 989.594 1298.88C982.52 1298.29 975.475 1300.33 969.82 1304.62C964.165 1308.92 960.3 1315.15 958.971 1322.13C958.696 1323.6 958.532 1325.09 958.481 1326.59L956.628 1386.98L954.095 1463.46L952.896 1502.59V1503.35V1505.64L952.841 1505.53Z" fill="#3F3D56"/>
<path opacity="0.1" d="M1736.36 1338.61L1733.01 1380.38L1728.02 1442.64L1726.77 1458.23L1724.04 1493.13L1723.88 1494.88V1495.34L1723.47 1499.37L1723.77 1495.34H1722.98L1431.47 1498.07L952.923 1503.24V1502.48L954.258 1463.35L956.982 1386.89L958.726 1336.08C958.812 1333.19 959.619 1330.36 961.076 1327.86C962.532 1325.36 964.59 1323.27 967.063 1321.77C970.148 1319.88 973.755 1319.02 977.361 1319.32C983.082 1319.78 990.111 1320.33 998.312 1320.93C1011.63 1321.91 1028.06 1323.05 1047.19 1324.25C1082.61 1326.48 1127.04 1328.88 1177.96 1330.84C1319.63 1336.29 1510.89 1338.12 1692.55 1322.21C1700.72 1321.5 1709.17 1320.71 1717.42 1319.92C1720.69 1319.59 1723.98 1320.22 1726.91 1321.72C1727.73 1322.13 1728.52 1322.62 1729.25 1323.19C1731.62 1324.91 1733.5 1327.22 1734.7 1329.89C1734.98 1330.42 1735.2 1330.98 1735.38 1331.55C1736.2 1333.81 1736.53 1336.22 1736.36 1338.61Z" fill="black"/>
<path opacity="0.1" d="M812.152 1375.91V1384.6C812.153 1387.77 811.258 1390.86 809.57 1393.53C807.882 1396.21 805.471 1398.34 802.616 1399.7L693.367 1401.8C690.462 1400.47 688.001 1398.33 686.277 1395.64C684.552 1392.95 683.637 1389.82 683.641 1386.62V1378.45L812.152 1375.91Z" fill="black"/>
<path d="M813.514 1404.82L671.163 1407.55V1383.92L813.514 1381.2V1404.82Z" fill="#3F3D56"/>
<path opacity="0.1" d="M813.514 1404.82L671.163 1407.55V1383.92L813.514 1381.2V1404.82Z" fill="black"/>
<path d="M818.963 1404.82L676.611 1407.55V1383.92L818.963 1381.2V1404.82Z" fill="#3F3D56"/>
<g opacity="0.1">
<path opacity="0.1" d="M1290.26 514.033C1287.6 510.574 1285.83 506.512 1285.11 502.207C1284.46 506.416 1284.85 510.721 1286.26 514.741C1287.61 514.617 1288.95 514.38 1290.26 514.033Z" fill="black"/>
<path opacity="0.1" d="M1255.66 532.126C1255.15 528.785 1254.81 525.42 1254.65 522.044C1254.65 525.395 1254.65 528.774 1254.65 532.153L1255.66 532.126Z" fill="black"/>
<path opacity="0.1" d="M1477.7 623.052C1477.85 620.624 1478.18 618.211 1478.68 615.831C1479.97 611.687 1480.7 607.389 1480.86 603.052C1480.8 602.078 1480.66 601.112 1480.43 600.164C1479.96 602.67 1479.23 605.177 1478.68 607.657C1477.59 612.711 1477.26 617.9 1477.7 623.052Z" fill="black"/>
<path opacity="0.1" d="M1421.03 538.856L1424 541.008C1426.51 539.197 1428.85 537.173 1431 534.959C1432.03 533.541 1432.67 531.879 1432.85 530.138C1433.03 528.398 1432.75 526.64 1432.04 525.041C1431.77 525.663 1431.42 526.249 1431 526.785C1427.65 531.09 1420.24 533.46 1421.03 538.856Z" fill="black"/>
<path opacity="0.1" d="M1197.17 565.068C1196.17 567.056 1195.38 569.137 1194.8 571.281C1199.06 568.902 1203.65 567.166 1208.42 566.131L1197.17 565.068Z" fill="black"/>
<path opacity="0.1" d="M1234.74 535.422C1232.95 534.436 1231.24 533.316 1229.62 532.071C1229.55 533.149 1229.63 534.231 1229.86 535.286C1231.49 535.209 1233.12 535.254 1234.74 535.422Z" fill="black"/>
<path opacity="0.1" d="M1501.1 695.967C1499.99 709.183 1493.83 721.907 1488.84 734.441C1478.85 759.564 1473.21 786.213 1468.98 812.943C1465.2 836.894 1460.81 864.087 1440.38 877.357C1434.54 880.845 1428.29 883.591 1421.77 885.531C1392.4 895.695 1362.79 905.886 1331.86 909.591C1300.94 913.297 1268.49 910.054 1241.52 894.632C1233.7 890.551 1226.99 884.632 1221.96 877.384C1214.69 865.858 1214.55 851.417 1211.06 838.229C1208.09 828.436 1204.45 818.859 1200.16 809.564C1194.14 794.905 1189.51 779.591 1184.91 764.523C1180.64 750.518 1176.38 736.503 1172.13 722.48C1170.73 718.261 1169.69 713.931 1169.02 709.537C1167.96 716.512 1170.03 723.815 1172.13 730.654C1176.38 744.696 1180.64 758.71 1184.91 772.698C1189.51 787.875 1194.14 803.079 1200.16 817.738C1204.45 827.033 1208.09 836.611 1211.06 846.403C1214.49 859.591 1214.63 874.033 1221.96 885.559C1226.99 892.807 1233.7 898.725 1241.52 902.806C1268.49 918.229 1301.02 921.471 1331.86 917.766C1362.7 914.06 1392.29 903.869 1421.77 893.706C1428.29 891.766 1434.54 889.02 1440.38 885.531C1460.67 872.262 1465.2 845.068 1468.98 821.117C1473.21 794.387 1478.85 767.738 1488.84 742.616C1494.78 727.684 1502.47 712.507 1501.16 696.458C1501.16 696.294 1501.1 696.131 1501.1 695.967Z" fill="black"/>
<path opacity="0.1" d="M1175.02 685.423C1175.02 685.423 1175.02 685.232 1175.02 685.123C1175.51 680.318 1175.08 675.464 1173.76 670.818C1173.22 667.828 1172.87 664.806 1172.7 661.771C1172.39 667.533 1172.74 673.312 1173.76 678.992C1174.2 681.118 1174.69 683.27 1175.02 685.423Z" fill="black"/>
<path opacity="0.1" d="M1183.33 618.774C1185.42 615.254 1187.8 611.909 1190.44 608.774C1185.45 613.543 1176.24 609.292 1174.31 602.671C1173.6 605.349 1173.6 608.167 1174.31 610.845C1174.98 612.844 1176.17 614.631 1177.75 616.023C1179.33 617.416 1181.26 618.365 1183.33 618.774Z" fill="black"/>
</g>
<path opacity="0.1" d="M1863.78 1317.87C1863.78 1317.87 1872.42 1349.21 1863.78 1376.46C1855.14 1403.71 1863.78 1317.87 1863.78 1317.87Z" fill="black"/>
<path opacity="0.1" d="M1900.56 1349.84C1900.56 1349.84 1904.18 1389.62 1896.01 1396.68C1887.84 1403.73 1900.56 1349.84 1900.56 1349.84Z" fill="black"/>
<path d="M542.134 934.223L818.963 931.498" stroke="#2C5271" stroke-width="2" stroke-miterlimit="10"/>
<path d="M542.134 968.202L818.963 965.504" stroke="#2C5271" stroke-width="2" stroke-miterlimit="10"/>
<path d="M542.134 1002.21L818.963 999.482" stroke="#2C5271" stroke-width="2" stroke-miterlimit="10"/>
</g>
<defs>
<linearGradient id="paint0_linear" x1="1565.35" y1="-3777" x2="1565.35" y2="1480.74" gradientUnits="userSpaceOnUse">
<stop stop-color="#2C5271"/>
<stop offset="1" stop-color="white" stop-opacity="0"/>
</linearGradient>
<linearGradient id="paint1_linear" x1="1565.35" y1="-3777" x2="1565.35" y2="1480.74" gradientUnits="userSpaceOnUse">
<stop stop-color="#2C5271"/>
<stop offset="1" stop-color="white" stop-opacity="0"/>
</linearGradient>
<clipPath id="clip0">
<rect width="2837" height="1510" fill="white"/>
</clipPath>
</defs>
</svg>
